<?xml version="1.0" standalone="no"?><!DOCTYPE svg PUBLIC "-//W3C//DTD SVG 1.1//EN" "http://www.w3.org/Graphics/SVG/1.1/DTD/svg11.dtd"><svg class="icon" width="200px" height="200.00px" viewBox="0 0 1024 1024" version="1.1" xmlns="http://www.w3.org/2000/svg"><path d="M437.226667 312.341333c-5.152 15.125333-20.608 23.552-34.538667 18.816-13.930667-4.736-21.056-20.832-15.914667-35.957333 5.130667-15.125333 20.586667-23.552 34.528-18.816 13.930667 4.725333 21.056 20.832 15.914667 35.946667z" fill="#AA208C" /><path d="M366.56 324.224a21.333333 21.333333 0 0 1 25.898667-10.549333l26.549333 9.024a21.333333 21.333333 0 0 1 14.101333 24.138666l-13.269333 70.645334a21.333333 21.333333 0 0 1-27.84 16.256l-45.792-15.552a21.333333 21.333333 0 0 1-12.16-29.856l32.512-64.106667z" fill="#F2EC5A" /><path d="M399.317333 293.482667l26.549334 9.013333a42.666667 42.666667 0 0 1 28.202666 48.277333l-13.258666 70.645334a42.666667 42.666667 0 0 1-55.658667 32.533333l-45.802667-15.573333a42.666667 42.666667 0 0 1-24.32-59.690667l32.512-64.106667a42.666667 42.666667 0 0 1 51.776-21.098666z m-6.858666 20.192a21.333333 21.333333 0 0 0-25.898667 10.56l-32.512 64.106666a21.333333 21.333333 0 0 0 12.16 29.845334l45.802667 15.562666a21.333333 21.333333 0 0 0 27.829333-16.266666l13.269333-70.645334a21.333333 21.333333 0 0 0-14.101333-24.138666l-26.56-9.024z" fill="#E654C5" /><path d="M332.416 403.306667a21.28 21.28 0 0 0 13.792 14.88l45.802667 15.552a21.333333 21.333333 0 0 0 27.829333-16.256l13.269333-70.645334a21.333333 21.333333 0 0 0-14.101333-24.138666l-1.365333-0.469334c0.757333 2.954667 0.896 6.112 0.309333 9.28L404.682667 402.133333a21.333333 21.333333 0 0 1-27.84 16.266667l-44.426667-15.104z" fill="#DCD535" /><path d="M451.541333 628.48c-34.570667 101.76-149.290667 240.117333-224.181333 214.677333-74.88-25.450667-81.568-205.056-46.986667-306.816 34.570667-101.76 125.664-170.592 200.554667-145.141333 74.88 25.44 105.194667 135.509333 70.613333 237.28z" fill="#46ECBA" /><path d="M298.709333 853.706667c-24.565333 12.373333-51.989333 18.56-78.208 9.642666-26.218667-8.906667-44.202667-30.517333-56.149333-55.285333-12.021333-24.928-19.221333-55.52-22.741333-87.36-7.008-63.552 0.16-137.066667 18.56-191.232 18.581333-54.688 52.48-101.077333 92.736-130.602667 40.106667-29.44 88.832-43.52 134.88-27.872s76.096 56.501333 89.984 104.266667c13.930667 47.946667 12.554667 105.386667-6.026667 160.074667-18.4 54.165333-57.504 116.832-101.781333 162.954666-22.186667 23.104-46.538667 42.986667-71.253334 55.413334z m-71.349333-10.56c74.88 25.450667 189.610667-112.906667 224.181333-214.666667 34.581333-101.76 4.266667-211.84-70.613333-237.28-74.88-25.450667-165.984 43.381333-200.565333 145.141333-34.570667 101.76-27.882667 281.376 46.997333 306.816z" fill="#19B89B" /><path d="M231.413333 844.373333c74.912 19.285333 186.176-115.946667 220.128-215.893333 34.581333-101.76 4.266667-211.84-70.613333-237.28-15.328-5.205333-31.328-6.464-47.381333-4.309333 5.696 0.874667 11.338667 2.24 16.885333 4.128 74.88 25.44 105.194667 135.52 70.613333 237.28-29.578667 87.082667-117.856 200.96-189.632 216.064z" fill="#35DFAC" /><path d="M321.248 608.448c-9.237333 49.344-53.109333 120.928-89.418667 114.133333-36.32-6.805333-51.317333-89.408-42.08-138.762666 9.237333-49.344 46.794667-87.210667 83.114667-80.416 36.309333 6.805333 57.632 55.690667 48.394667 105.045333z" fill="#6AF9CE" /><path d="M222.538667 568.821333a16 16 0 0 1 11.797333 19.306667c-2.826667 11.712-7.413333 42.848-2.88 70.229333a16 16 0 0 1-31.573333 5.226667c-5.472-33.066667-0.064-68.8 3.349333-82.965333a16 16 0 0 1 19.306667-11.797334z" fill="#FFFFFF" /><path d="M399.882667 477.866667a9.141333 9.141333 0 0 1-11.658667 5.589333 9.141333 9.141333 0 0 1-5.845333-11.530667 9.141333 9.141333 0 0 1 11.658666-5.589333 9.141333 9.141333 0 0 1 5.845334 11.530667zM454.4 509.098667a8.245333 8.245333 0 0 1-10.517333 5.045333 8.245333 8.245333 0 0 1-5.269334-10.410667 8.245333 8.245333 0 0 1 10.517334-5.034666c4.362667 1.482667 6.72 6.133333 5.269333 10.4zM422.858667 509.205333a8.245333 8.245333 0 0 1-10.517334 5.034667 8.245333 8.245333 0 0 1-5.269333-10.4 8.245333 8.245333 0 0 1 10.517333-5.034667c4.362667 1.472 6.72 6.133333 5.269334 10.4zM458.730667 567.541333a8.245333 8.245333 0 0 1-10.517334 5.034667 8.245333 8.245333 0 0 1-5.269333-10.4 8.245333 8.245333 0 0 1 10.517333-5.045333c4.362667 1.493333 6.72 6.144 5.269334 10.410666zM422.698667 457.856a8.245333 8.245333 0 0 1-10.517334 5.034667 8.245333 8.245333 0 0 1-5.28-10.4 8.245333 8.245333 0 0 1 10.517334-5.045334c4.373333 1.493333 6.72 6.144 5.28 10.410667zM407.189333 427.626667a5.92 5.92 0 0 1-7.541333 3.626666 5.92 5.92 0 0 1-3.776-7.466666 5.92 5.92 0 0 1 7.541333-3.616c3.125333 1.066667 4.821333 4.405333 3.776 7.466666zM441.632 485.813333a12.373333 12.373333 0 0 1-15.786667 7.573334 12.373333 12.373333 0 0 1-7.893333-15.616 12.373333 12.373333 0 0 1 15.765333-7.552c6.538667 2.218667 10.08 9.205333 7.914667 15.594666zM444.8 542.965333a12.373333 12.373333 0 0 1-15.765333 7.562667 12.373333 12.373333 0 0 1-7.914667-15.605333 12.373333 12.373333 0 0 1 15.786667-7.562667c6.528 2.229333 10.069333 9.216 7.893333 15.605333z" fill="#1BCA96" /><path d="M667.253333 317.792c2.346667 14.506667-6.592 28.010667-19.946666 30.165333-13.365333 2.144-26.090667-7.872-28.426667-22.368-2.336-14.506667 6.602667-28.010667 19.957333-30.165333 13.354667-2.144 26.08 7.861333 28.416 22.368z" fill="#066060" /><path d="M614.986667 359.36a21.333333 21.333333 0 0 1 17.941333-21.44l22.506667-3.626667a21.333333 21.333333 0 0 1 23.776 14.72l18.602666 59.808a21.333333 21.333333 0 0 1-16.981333 27.402667l-40 6.442667a21.333333 21.333333 0 0 1-24.725333-20.682667l-1.12-62.613333z" fill="#DCBA41" /><path d="M629.536 316.853333l22.506667-3.626666a42.666667 42.666667 0 0 1 47.530666 29.450666l18.613334 59.808a42.666667 42.666667 0 0 1-33.962667 54.794667l-40 6.442667a42.666667 42.666667 0 0 1-49.450667-41.354667l-1.109333-62.624a42.666667 42.666667 0 0 1 35.872-42.88z m3.392 21.066667a21.333333 21.333333 0 0 0-17.941333 21.44l1.12 62.624a21.333333 21.333333 0 0 0 24.725333 20.682667l40-6.442667a21.333333 21.333333 0 0 0 16.981333-27.402667l-18.602666-59.808a21.333333 21.333333 0 0 0-23.765334-14.72l-22.517333 3.626667z" fill="#078181" /><path d="M622.325333 436.672c4.650667 4.650667 11.402667 7.146667 18.506667 5.994667l40-6.442667a21.333333 21.333333 0 0 0 16.981333-27.402667l-18.602666-59.808a21.333333 21.333333 0 0 0-23.765334-14.72l-0.426666 0.064c2.378667 2.378667 4.213333 5.333333 5.269333 8.725334l18.602667 59.808a21.333333 21.333333 0 0 1-16.970667 27.402666l-39.594667 6.378667z" fill="#B49528" /><path d="M815.008 568.501333c15.712 97.578667-17.930667 259.392-89.738667 270.965334-71.797333 11.562667-154.56-131.498667-170.282666-229.077334-15.712-97.568 28.672-192.714667 100.48-204.277333 71.786667-11.573333 143.818667 64.821333 159.541333 162.389333z" fill="#E946EC" /><path d="M789.184 818.314667c-14.773333 20.821333-34.752 38.058667-60.522667 42.208-25.76 4.16-50.133333-5.941333-70.72-21.066667-20.704-15.221333-39.861333-37.152-56.48-61.6-33.184-48.810667-59.125333-111.861333-67.530666-164.074667-8.501333-52.757333-0.885333-105.408 19.274666-147.072 20.074667-41.514667 53.994667-74.432 98.869334-81.664 44.864-7.232 87.402667 13.386667 119.498666 46.485334 32.234667 33.226667 56 80.821333 64.490667 133.578666 8.405333 52.213333 3.594667 120.213333-12.586667 176.981334-8.106667 28.426667-19.413333 55.264-34.293333 76.224zM725.269333 839.466667c71.797333-11.573333 105.450667-173.386667 89.738667-270.954667-15.722667-97.578667-87.744-173.973333-159.541333-162.4-71.808 11.562667-116.192 106.709333-100.48 204.277333 15.722667 97.578667 98.485333 240.64 170.282666 229.077334z" fill="#AA0AAD" /><path d="M729.088 838.698667c69.173333-16.565333 101.354667-174.357333 85.909333-270.186667-15.712-97.578667-87.733333-173.973333-159.530666-162.4-14.698667 2.357333-28.234667 8.224-40.352 16.896a91.2 91.2 0 0 1 15.498666-3.914667c71.797333-11.562667 143.818667 64.821333 159.541334 162.4 13.44 83.498667-9.248 214.026667-61.066667 257.205334z" fill="#CC38CF" /><path d="M700.512 608.32c13.738667 44.085333 8.906667 121.141333-23.530667 131.253333-32.426667 10.101333-80.181333-50.56-93.930666-94.634666-13.738667-44.074667 0.48-91.018667 32.917333-101.12 32.426667-10.122667 70.805333 20.426667 84.544 64.512z" fill="#FB6AFE" /><path d="M602.922667 617.386667a16 16 0 0 1 19.466666 11.530666c2.72 10.634667 12.341333 37.738667 27.669334 57.834667a16 16 0 0 1-25.44 19.413333c-18.837333-24.693333-29.888-56.234667-33.226667-69.322666a16 16 0 0 1 11.530667-19.466667z" fill="#FFFFFF" /><path d="M708.181333 468.373333a8.405333 8.405333 0 0 1-7.072 9.557334 8.405333 8.405333 0 0 1-9.706666-6.858667 8.405333 8.405333 0 0 1 7.061333-9.557333 8.405333 8.405333 0 0 1 9.706667 6.858666zM765.930667 470.282667a7.573333 7.573333 0 0 1-6.378667 8.618666 7.584 7.584 0 0 1-8.757333-6.186666 7.573333 7.573333 0 0 1 6.368-8.618667 7.573333 7.573333 0 0 1 8.768 6.186667zM740.341333 483.946667a7.573333 7.573333 0 0 1-6.378666 8.618666 7.584 7.584 0 0 1-8.757334-6.186666 7.573333 7.573333 0 0 1 6.378667-8.618667 7.573333 7.573333 0 0 1 8.757333 6.186667zM794.602667 515.893333a7.573333 7.573333 0 0 1-6.368 8.629334 7.584 7.584 0 0 1-8.768-6.186667 7.584 7.584 0 0 1 6.378666-8.618667 7.573333 7.573333 0 0 1 8.757334 6.186667zM718.090667 442.282667a7.584 7.584 0 0 1-6.368 8.618666 7.584 7.584 0 0 1-8.768-6.186666 7.573333 7.573333 0 0 1 6.378666-8.618667 7.573333 7.573333 0 0 1 8.757334 6.186667zM692.490667 424.405333a5.44 5.44 0 0 1-4.576 6.186667 5.44 5.44 0 0 1-6.282667-4.437333 5.44 5.44 0 0 1 4.576-6.186667 5.44 5.44 0 0 1 6.282667 4.437333zM745.504 456.853333a11.370667 11.370667 0 0 1-9.557333 12.928 11.370667 11.370667 0 0 1-13.141334-9.28 11.370667 11.370667 0 0 1 9.568-12.928 11.370667 11.370667 0 0 1 13.130667 9.28zM772.704 501.930667a11.370667 11.370667 0 0 1-9.557333 12.928 11.370667 11.370667 0 0 1-13.141334-9.28 11.370667 11.370667 0 0 1 9.568-12.928 11.370667 11.370667 0 0 1 13.130667 9.28z" fill="#981CC4" /><path d="M98.698667 120.906667a10.666667 10.666667 0 0 1 15.061333-0.874667c111.488 99.306667 430.72 258.538667 809.994667 94.186667a10.666667 10.666667 0 1 1 8.490666 19.573333c-388.725333 168.437333-716.608 5.546667-832.672-97.824a10.666667 10.666667 0 0 1-0.874666-15.061333z" fill="#45A2D7" /><path d="M98.698667 120.906667a10.666667 10.666667 0 0 1 15.061333-0.874667c62.272 55.466667 190.048 130.101333 357.226667 155.925333a10.666667 10.666667 0 0 1-3.253334 21.088c-171.349333-26.474667-302.890667-102.954667-368.16-161.077333a10.666667 10.666667 0 0 1-0.874666-15.061333z" fill="#69C2F4" /></svg>