<?xml version="1.0" standalone="no"?><!DOCTYPE svg PUBLIC "-//W3C//DTD SVG 1.1//EN" "http://www.w3.org/Graphics/SVG/1.1/DTD/svg11.dtd"><svg class="icon" width="200px" height="200.00px" viewBox="0 0 1024 1024" version="1.1" xmlns="http://www.w3.org/2000/svg"><path d="M652.8 399.317333c14.112-25.813333 22.208-55.978667 22.208-88.213333 0-95.413333-71.04-172.768-158.666667-172.768-87.637333 0-158.677333 77.354667-158.677333 172.778667 0 32.810667 8.394667 63.477333 22.976 89.6-75.413333-7.957333-158.304 0.362667-174.602667 65.546666-24.042667 96.170667 82.272 128.938667 194.581334 119.573334C377.813333 650.666667 341.098667 720.768 290.666667 741.312c-95.2 38.784-63.466667 172.778667 52.896 151.616 93.088-16.917333 151.616-96.373333 169.248-133.984 24.682667 49.365333 99.434667 145.28 200.992 133.984 101.546667-11.274667 112.832-84.618667 105.781333-119.893333-4.693333-18.794667-29.621333-55.701333-91.68-52.885334-52.096 2.368-88.288-65.226667-109.653333-132.32 116.586667 4.437333 226.933333-34.922667 198.048-133.632-17.568-60.042667-92.213333-65.632-163.488-54.869333z" fill="#DFA158" /><path d="M819.584 773.034667c7.050667 35.264-4.234667 108.608-105.781333 119.893333-87.925333 9.76-155.765333-60.821333-188.405334-111.989333a245.824 245.824 0 0 1-12.586666-22.005334 195.776 195.776 0 0 1-12.341334 22.037334c-25.962667 40.533333-79.488 97.877333-156.906666 111.946666-116.373333 21.162667-148.106667-112.832-52.896-151.616 44.757333-18.24 78.72-75.509333 101.728-133.472 2.922667-7.349333 5.653333-14.698667 8.224-21.994666-7.754667 0.650667-15.488 1.098667-23.146667 1.333333-103.232 3.2-193.813333-31.381333-171.434667-120.906667 14.506667-58.026667 81.813333-70.997333 149.632-67.52 8.352 0.426667 16.704 1.109333 24.970667 1.984a178.506667 178.506667 0 0 1-10.528-22.4 185.536 185.536 0 0 1-12.448-67.210666c0-95.424 71.04-172.778667 158.677333-172.778667 87.626667 0 158.677333 77.354667 158.677334 172.778667 0 23.082667-4.16 45.12-11.712 65.248-2.986667 7.968-6.506667 15.637333-10.496 22.954666 8.426667-1.28 16.917333-2.314667 25.354666-3.072 62.794667-5.6 122.645333 5.013333 138.133334 57.941334 27.008 92.309333-67.744 132.714667-175.498667 133.941333-7.466667 0.085333-14.986667-0.021333-22.538667-0.309333 2.293333 7.210667 4.757333 14.432 7.402667 21.568 21.92 59.242667 55.744 112.864 102.24 110.752 62.058667-2.816 86.976 34.090667 91.68 52.896zM648.458667 609.312c8.64 22.058667 18.794667 42.325333 30.336 58.133333 16.554667 22.698667 32.682667 32.085333 48.138666 31.381334 72.789333-3.306667 106.325333 40.96 113.344 69.034666l0.128 0.490667 0.106667 0.501333c4.330667 21.706667 3.104 54.528-14.848 84.16-18.602667 30.72-53.248 54.858667-109.504 61.12-58.485333 6.485333-108.170667-18.090667-145.344-49.077333-23.893333-19.925333-43.434667-43.125333-57.898667-64.298667a304.949333 304.949333 0 0 1-41.845333 48.490667c-30.581333 28.661333-72.064 55.274667-123.701333 64.661333-67.648 12.298667-116.032-20.938667-130.048-68.266666-13.738667-46.368 7.690667-100.629333 65.290666-124.106667 19.36-7.882667 38.165333-26.346667 55.498667-52.992 11.669333-17.952 21.994667-38.570667 30.901333-59.861333-46.688 0.48-91.978667-6.570667-126.453333-24.021334-21.642667-10.965333-40.149333-26.624-51.082667-48.181333-11.061333-21.813333-13.152-47.306667-6.133333-75.392 10.613333-42.474667 43.296-65.013333 79.946667-75.530667 25.173333-7.221333 53.610667-9.301333 81.685333-8.512a207.573333 207.573333 0 0 1-10.645333-65.930666c0-105.461333 78.912-194.112 180.010666-194.112 101.088 0 180.010667 88.64 180.010667 194.112 0 22.048-3.413333 43.274667-9.728 63.104 25.312-1.568 50.656-0.448 73.322667 5.301333 34.592 8.789333 65.290667 29.248 76.832 68.672 8.416 28.768 7.146667 55.146667-3.488 78.101333-10.485333 22.656-29.024 39.648-51.018667 51.989334-35.957333 20.170667-84.149333 29.664-133.813333 31.04z" fill="#9E6017" /><path d="M643.008 279.114667c0 32.213333-8.096 62.389333-22.197333 88.213333a379.264 379.264 0 0 1 46.933333-4.330667 186.88 186.88 0 0 0 7.264-51.882666c0-58.890667-27.050667-110.901333-68.373333-142.101334 22.72 29.898667 36.373333 68.266667 36.373333 110.101334z m136.341333 130.346666c1.962667 3.946667 3.626667 8.170667 4.949334 12.725334 28.885333 98.709333-81.461333 138.069333-198.037334 133.632 16.085333 50.528 40.586667 101.344 73.952 122.346666-17.6-24.789333-31.541333-57.632-41.952-90.346666 116.586667 4.437333 226.922667-34.922667 198.037334-133.632-6.165333-21.066667-19.349333-35.413333-36.949334-44.725334z m4.512 321.696c1.770667 3.584 2.986667 6.944 3.722667 9.877334 7.050667 35.264-4.234667 108.608-105.781333 119.893333-51.52 5.717333-96.138667-16.149333-130.826667-45.525333 36.949333 43.178667 93.674667 85.205333 162.826667 77.514666 101.546667-11.274667 112.832-84.618667 105.781333-119.893333-2.901333-11.584-13.482667-30.069333-35.733333-41.866667zM507.52 769.194667c-11.669333-15.36-20.693333-30.208-26.72-42.261334-17.632 37.610667-76.16 117.066667-169.248 133.984-27.850667 5.066667-50.848 1.248-68.426667-8.032 15.061333 29.002667 49.706667 49.258667 100.426667 40.032 85.290667-15.509333 141.568-83.509333 163.957333-123.722666zM355.690667 587.274667a575.328 575.328 0 0 0 12.917333-33.44c-60.618667 5.056-119.488-2.165333-157.056-25.002667 21.386667 39.061333 78.592 56.981333 144.138667 58.442667z" fill="#CE8F44" /><path d="M410.613333 725.002667a10.666667 10.666667 0 1 1-21.333333 0 10.666667 10.666667 0 0 1 21.333333 0zM304.256 854.293333a10.666667 10.666667 0 1 1-21.333333 0 10.666667 10.666667 0 0 1 21.333333 0zM478.250667 780.672a10.666667 10.666667 0 1 1-21.333334 0 10.666667 10.666667 0 0 1 21.333334 0zM456.917333 590.752a10.666667 10.666667 0 1 1-21.333333 0 10.666667 10.666667 0 0 1 21.333333 0zM287.328 525.44a10.666667 10.666667 0 1 1-21.333333 0 10.666667 10.666667 0 0 1 21.333333 0zM380.981333 442.336a10.666667 10.666667 0 1 1-21.333333 0 10.666667 10.666667 0 0 1 21.333333 0zM435.584 507.584a10.666667 10.666667 0 1 1-21.333333 0 10.666667 10.666667 0 0 1 21.333333 0zM463.722667 413.28a10.666667 10.666667 0 1 1-21.333334 0 10.666667 10.666667 0 0 1 21.333334 0zM637.44 464.010667a10.666667 10.666667 0 1 1-21.333333 0 10.666667 10.666667 0 0 1 21.333333 0zM637.44 362.336a10.666667 10.666667 0 1 1-21.333333 0 10.666667 10.666667 0 0 1 21.333333 0zM516.416 306.997333a10.666667 10.666667 0 1 1-21.333333 0 10.666667 10.666667 0 0 1 21.333333 0zM558.837333 186.336a10.666667 10.666667 0 1 1-21.333333 0 10.666667 10.666667 0 0 1 21.333333 0zM446.250667 210.997333a10.666667 10.666667 0 1 1-21.333334 0 10.666667 10.666667 0 0 1 21.333334 0zM762.112 486.250667a10.666667 10.666667 0 1 1-21.333333 0 10.666667 10.666667 0 0 1 21.333333 0zM618.613333 546.773333a10.666667 10.666667 0 1 1-21.333333 0 10.666667 10.666667 0 0 1 21.333333 0zM601.066667 677.962667a10.666667 10.666667 0 1 1-21.333334 0 10.666667 10.666667 0 0 1 21.333334 0zM575.274667 764.832a10.666667 10.666667 0 1 1-21.333334 0 10.666667 10.666667 0 0 1 21.333334 0zM641.813333 801.301333a10.666667 10.666667 0 1 1-21.333333 0 10.666667 10.666667 0 0 1 21.333333 0zM727.466667 850.634667a10.666667 10.666667 0 1 1-21.333334 0 10.666667 10.666667 0 0 1 21.333334 0z" fill="#9E6017" /><path d="M425.770667 205.706667a16 16 0 0 1 2.805333 22.453333c-10.133333 13.013333-31.306667 55.68-23.466667 110.581333a16 16 0 1 1-31.68 4.522667c-9.216-64.565333 15.125333-115.776 29.888-134.752a16 16 0 0 1 22.453334-2.805333zM324.8 417.12a16 16 0 0 1-11.637333 19.402667c-43.413333 10.848-60.032 46.72-62.805334 62.005333a16 16 0 0 1-31.488-5.728c4.330667-23.808 27.541333-72.576 86.528-87.328a16 16 0 0 1 19.402667 11.648zM415.68 608.490667a16 16 0 0 1 10.112 20.234666c-5.685333 17.045333-17.098667 44-33.216 70.688-15.978667 26.432-37.525333 54.208-64.042667 71.082667-13.909333 8.853333-21.973333 15.562667-27.669333 22.112-5.610667 6.442667-9.568 13.504-14.282667 24.181333a16 16 0 1 1-29.28-12.906666c5.290667-11.989333 10.773333-22.346667 19.413334-32.266667 8.533333-9.813333 19.445333-18.453333 34.634666-28.117333 20.416-12.992 38.869333-35.872 53.834667-60.64 14.816-24.512 25.258667-49.290667 30.250667-64.256a16 16 0 0 1 20.234666-10.112z" fill="#F9B76B" /><path d="M435.392 331.274667a10.666667 10.666667 0 0 1 15.04 1.045333c10.474667 12.053333 30.432 26.709333 55.445333 30.954667 24.394667 4.128 54.922667-1.408 87.968-31.808a10.666667 10.666667 0 1 1 14.442667 15.701333c-37.482667 34.485333-74.538667 42.464-105.973333 37.141333-30.826667-5.226667-54.933333-22.997333-67.978667-37.994666a10.666667 10.666667 0 0 1 1.056-15.04z" fill="#763B04" /><path d="M498.805333 251.168a21.152 21.152 0 1 1-42.314666 0 21.152 21.152 0 0 1 42.314666 0z" fill="#763B04" /><path d="M520.138667 251.168a42.485333 42.485333 0 1 1-84.981334 0 42.485333 42.485333 0 0 1 84.981334 0zM477.653333 272.32a21.152 21.152 0 1 0 0-42.314667 21.152 21.152 0 0 0 0 42.314667z" fill="#FFFFFF" /><path d="M590.485333 251.168a21.152 21.152 0 1 1-42.314666 0 21.152 21.152 0 0 1 42.314666 0z" fill="#763B04" /><path d="M611.818667 251.168a42.485333 42.485333 0 1 1-84.981334 0 42.485333 42.485333 0 0 1 84.981334 0z m-42.485334 21.152a21.152 21.152 0 1 0 0-42.314667 21.152 21.152 0 0 0 0 42.314667z" fill="#FFFFFF" /><path d="M546.026667 467.296a32.906667 32.906667 0 1 1-28.64 59.242667 32.906667 32.906667 0 0 1 28.64-59.242667z" fill="#FF4D26" /><path d="M555.306667 448.085333a54.24 54.24 0 1 1-47.2 97.664 54.24 54.24 0 0 1 47.2-97.664z m6.026666 63.146667a32.906667 32.906667 0 1 0-59.253333-28.629333 32.906667 32.906667 0 0 0 59.253333 28.64z" fill="#CC8736" /><path d="M561.333333 511.232a32.906667 32.906667 0 0 0-26.122666-47.04 27.008 27.008 0 0 1 18.581333 38.122667 26.986667 26.986667 0 1 1-45.152-28.864 32.906667 32.906667 0 1 0 52.693333 37.792z" fill="#D43816" /><path d="M524.224 625.258667a28.202667 28.202667 0 1 1-8.533333 55.765333 28.202667 28.202667 0 0 1 8.533333-55.765333z" fill="#FF4D26" /><path d="M527.456 604.170667a49.546667 49.546667 0 1 1-14.986667 97.952 49.546667 49.546667 0 0 1 14.986667-97.952z m20.394667 53.237333a28.213333 28.213333 0 1 0-55.776-8.533333 28.213333 28.213333 0 0 0 55.776 8.533333z" fill="#CC8635" /><path d="M547.84 657.408a28.202667 28.202667 0 0 0-33.269333-31.957333 23.136 23.136 0 1 1-19.434667 14.272 28.202667 28.202667 0 1 0 52.704 17.685333z" fill="#D43816" /><path d="M524.693333 475.242667a8.501333 8.501333 0 1 1-7.402666 15.306666 8.501333 8.501333 0 0 1 7.402666-15.306666zM508.672 634.218667a8.501333 8.501333 0 1 1-2.56 16.810666 8.501333 8.501333 0 0 1 2.56-16.810666z" fill="#FF9E74" /><path d="M629.28 693.002667a10.666667 10.666667 0 1 1-21.333333 0 10.666667 10.666667 0 0 1 21.333333 0zM764.938667 529.813333a10.666667 10.666667 0 1 1-21.333334 0 10.666667 10.666667 0 0 1 21.333334 0zM661.28 714.336a10.666667 10.666667 0 1 1-21.333333 0 10.666667 10.666667 0 0 1 21.333333 0zM639.946667 743.498667a7.829333 7.829333 0 1 1-15.669334 0 7.829333 7.829333 0 0 1 15.669334 0zM682.613333 743.498667a7.829333 7.829333 0 1 1-15.669333 0 7.829333 7.829333 0 0 1 15.669333 0zM713.610667 767.168a7.829333 7.829333 0 1 1-15.669334 0 7.829333 7.829333 0 0 1 15.669334 0zM759.274667 743.498667a7.829333 7.829333 0 1 1-15.658667 0 7.829333 7.829333 0 0 1 15.658667 0zM794.944 777.621333a7.829333 7.829333 0 1 1-15.669333 0 7.829333 7.829333 0 0 1 15.669333 0zM748.864 770.624a4.373333 4.373333 0 1 1-8.746667 0 4.373333 4.373333 0 0 1 8.746667 0zM646.186667 677.962667a4.373333 4.373333 0 1 1-8.746667 0 4.373333 4.373333 0 0 1 8.746667 0zM618.613333 647.626667a4.373333 4.373333 0 1 1-8.746666 0 4.373333 4.373333 0 0 1 8.746666 0zM725.557333 556.288a4.373333 4.373333 0 1 1-8.746666 0 4.373333 4.373333 0 0 1 8.746666 0zM794.56 519.146667a4.373333 4.373333 0 1 1-8.746667 0 4.373333 4.373333 0 0 1 8.746667 0zM805.226667 484.48a4.373333 4.373333 0 1 1-8.746667 0 4.373333 4.373333 0 0 1 8.746667 0zM778.890667 510.4a4.373333 4.373333 0 1 1-8.746667 0 4.373333 4.373333 0 0 1 8.746667 0zM734.304 529.813333a4.373333 4.373333 0 1 1-8.746667 0 4.373333 4.373333 0 0 1 8.746667 0zM672.64 565.045333a4.373333 4.373333 0 1 1-8.746667 0 4.373333 4.373333 0 0 1 8.746667 0z" fill="#C67C27" /><path d="M267.456 415.616c-2.208-1.813333-6.357333-2.677333-11.072-2.208a10.666667 10.666667 0 1 1-2.122667-21.226667c7.04-0.704 18.133333-0.138667 26.773334 6.976 9.546667 7.872 12.768 20.8 9.429333 37.461334-1.813333 9.130667-2.186667 13.312-1.728 15.829333 0.213333 1.194667 0.576 2.496 4.245333 4.938667 5.653333 3.776 13.568 9.813333 17.664 19.52 4.352 10.314667 3.52 22.464-3.466666 36.437333-4.682667 9.365333-4.544 13.781333-3.989334 16.192 0.618667 2.698667 1.962667 4.672 4.768 8.810667l2.08 3.093333c3.733333 5.610667 9.024 14.72 10.634667 24.341333 0.842667 4.949333 0.821333 10.72-1.536 16.352-2.453333 5.834667-6.976 10.453333-13.194667 13.557334a10.666667 10.666667 0 0 1-9.546666-19.082667c2.24-1.12 2.826667-2.154667 3.072-2.72 0.32-0.789333 0.576-2.197333 0.170666-4.565333-0.853333-5.024-4.032-11.072-7.349333-16.042667l-1.365333-1.994667c-2.88-4.16-6.912-9.973333-8.533334-16.96-2.08-9.045333-0.192-18.730667 5.706667-30.517333 5.024-10.037333 4.192-15.530667 2.901333-18.602667-1.557333-3.68-4.938667-6.794667-9.856-10.069333-6.901333-4.597333-11.84-10.346667-13.386666-18.869333-1.301333-7.168 0.096-15.328 1.792-23.829334 2.453333-12.213333-0.789333-15.744-2.090667-16.821333z" fill="#13DE64" /><path d="M288.789333 415.616c-2.208-1.813333-6.357333-2.688-11.072-2.208a10.666667 10.666667 0 0 1-2.122666-21.226667c7.04-0.704 18.133333-0.138667 26.773333 6.976 9.546667 7.872 12.768 20.789333 9.429333 37.461334-1.813333 9.130667-2.186667 13.312-1.728 15.829333 0.213333 1.194667 0.565333 2.485333 4.245334 4.938667 5.653333 3.776 13.568 9.813333 17.664 19.52 4.352 10.314667 3.52 22.453333-3.466667 36.437333-4.682667 9.365333-4.544 13.781333-3.989333 16.192 0.618667 2.698667 1.962667 4.672 4.768 8.810667l2.08 3.093333c3.733333 5.610667 9.024 14.72 10.634666 24.330667 0.842667 4.96 0.821333 10.730667-1.536 16.362666-2.453333 5.834667-6.976 10.453333-13.205333 13.546667a10.666667 10.666667 0 1 1-9.536-19.072c2.24-1.12 2.826667-2.154667 3.072-2.730667 0.32-0.778667 0.576-2.186667 0.170667-4.554666-0.853333-5.024-4.032-11.072-7.349334-16.042667-0.405333-0.618667-0.864-1.28-1.365333-1.994667-2.88-4.16-6.912-9.973333-8.533333-16.96-2.08-9.045333-0.192-18.730667 5.706666-30.517333 5.013333-10.037333 4.192-15.530667 2.901334-18.602667-1.557333-3.68-4.938667-6.794667-9.856-10.069333-6.901333-4.608-11.84-10.346667-13.386667-18.869333-1.301333-7.168 0.096-15.328 1.792-23.829334 2.453333-12.213333-0.789333-15.744-2.090667-16.821333z" fill="#FFF7CD" /><path d="M290.677333 761.12c-1.461333 0.032-3.669333 1.152-5.802666 3.712a10.666667 10.666667 0 0 1-16.394667-13.653333c3.925333-4.714667 11.370667-11.125333 21.664-11.381334 11.018667-0.277333 20.906667 6.496 29.173333 18.901334 4.576 6.858667 6.933333 9.706667 8.714667 11.050666 0.778667 0.586667 1.514667 1.088 4.650667 0.682667 5.792-0.746667 14.4-1.28 22.965333 2.773333 8.96 4.224 15.978667 12.48 20.597333 25.418667 3.04 8.490667 5.802667 11.2 7.573334 12.416 1.930667 1.322667 3.797333 1.813333 7.936 2.901333l3.146666 0.832c5.674667 1.536 14.421333 4.48 21.322667 9.76 3.530667 2.709333 7.114667 6.432 9.258667 11.434667 2.24 5.226667 2.56 11.050667 0.714666 17.056a10.666667 10.666667 0 0 1-20.394666-6.261333c0.426667-1.408 0.224-2.026667 0.074666-2.389334-0.256-0.597333-0.96-1.621333-2.634666-2.901333-3.52-2.709333-9.002667-4.778667-13.898667-6.101333l-1.984-0.512c-4.224-1.066667-10.282667-2.581333-15.584-6.208-6.816-4.650667-11.722667-11.936-15.616-22.848-3.242667-9.098667-7.072-12.106667-9.621333-13.312-2.922667-1.386667-6.474667-1.504-11.114667-0.906667-7.306667 0.96-13.973333-0.106667-20.16-4.757333-5.205333-3.882667-9.44-9.909333-13.696-16.288-6.176-9.28-10.144-9.44-10.88-9.418667z" fill="#1BC1E6" /><path d="M301.354667 750.453333c-1.461333 0.032-3.68 1.152-5.802667 3.712a10.666667 10.666667 0 0 1-16.405333-13.653333c3.925333-4.714667 11.370667-11.125333 21.664-11.381333 11.018667-0.277333 20.906667 6.496 29.184 18.901333 4.565333 6.858667 6.912 9.706667 8.704 11.050667 0.789333 0.586667 1.514667 1.088 4.650666 0.682666 5.802667-0.746667 14.4-1.28 22.965334 2.773334 8.96 4.224 15.978667 12.48 20.597333 25.418666 3.04 8.490667 5.802667 11.2 7.573333 12.416 1.930667 1.322667 3.797333 1.813333 7.936 2.901334l3.146667 0.832c5.674667 1.536 14.421333 4.48 21.322667 9.76 3.530667 2.709333 7.114667 6.432 9.258666 11.434666 2.24 5.226667 2.56 11.050667 0.714667 17.056a10.666667 10.666667 0 0 1-20.394667-6.261333c0.426667-1.408 0.224-2.026667 0.074667-2.389333-0.256-0.597333-0.949333-1.621333-2.634667-2.901334-3.52-2.709333-9.002667-4.778667-13.898666-6.101333l-1.984-0.512c-4.224-1.066667-10.282667-2.581333-15.573334-6.208-6.826667-4.650667-11.733333-11.936-15.626666-22.848-3.242667-9.098667-7.072-12.106667-9.621334-13.312-2.922667-1.386667-6.474667-1.504-11.114666-0.906667-7.296 0.96-13.973333-0.106667-20.16-4.757333-5.205333-3.882667-9.429333-9.909333-13.696-16.288-6.176-9.28-10.144-9.44-10.88-9.418667z" fill="#FFF7CD" /><path d="M626.464 851.136c-0.074667 1.461333 0.874667 3.754667 3.253333 6.08a10.666667 10.666667 0 0 1-14.869333 15.285333c-4.405333-4.266667-10.218667-12.192-9.685333-22.474666 0.576-11.008 8.106667-20.341333 21.109333-27.626667 7.178667-4.032 10.208-6.154667 11.68-7.84 0.64-0.736 1.216-1.418667 1.045333-4.576-0.298667-5.845333-0.170667-14.453333 4.533334-22.688 4.906667-8.597333 13.696-14.965333 26.944-18.570667 8.704-2.368 11.626667-4.906667 12.970666-6.581333 1.472-1.834667 2.101333-3.648 3.498667-7.68l1.077333-3.093333c1.962667-5.536 5.568-14.026667 11.381334-20.490667 2.965333-3.317333 6.965333-6.602667 12.106666-8.352a24.384 24.384 0 0 1 17.066667 0.597333 10.666667 10.666667 0 0 1-7.829333 19.850667c-1.365333-0.533333-1.994667-0.373333-2.368-0.245333-0.618667 0.213333-1.685333 0.810667-3.093334 2.389333-2.986667 3.306667-5.461333 8.608-7.157333 13.397333-0.213333 0.576-0.426667 1.226667-0.661333 1.930667-1.386667 4.128-3.370667 10.048-7.392 15.061333-5.173333 6.432-12.810667 10.752-24 13.802667-9.312 2.528-12.618667 6.112-14.016 8.565333-1.6 2.805333-1.994667 6.325333-1.749334 11.008 0.373333 7.36-1.205333 13.909333-6.314666 19.733334-4.266667 4.885333-10.602667 8.64-17.301334 12.384-9.706667 5.44-10.186667 9.386667-10.229333 10.133333z" fill="#1BC1E5" /><path d="M615.797333 840.469333c-0.074667 1.461333 0.874667 3.754667 3.253334 6.08a10.666667 10.666667 0 1 1-14.869334 15.285334c-4.405333-4.266667-10.218667-12.192-9.685333-22.474667 0.576-11.008 8.106667-20.341333 21.109333-27.626667 7.178667-4.032 10.208-6.154667 11.68-7.84 0.64-0.736 1.216-1.418667 1.045334-4.576-0.298667-5.845333-0.170667-14.453333 4.533333-22.688 4.906667-8.597333 13.696-14.965333 26.944-18.570666 8.704-2.368 11.626667-4.906667 12.970667-6.581334 1.472-1.834667 2.101333-3.648 3.498666-7.68l1.066667-3.093333c1.973333-5.536 5.578667-14.026667 11.392-20.490667 2.965333-3.317333 6.954667-6.602667 12.106667-8.352a24.384 24.384 0 0 1 17.066666 0.597334 10.666667 10.666667 0 0 1-7.829333 19.850666c-1.365333-0.533333-1.994667-0.373333-2.368-0.245333-0.618667 0.213333-1.685333 0.810667-3.093333 2.389333-2.986667 3.306667-5.461333 8.608-7.157334 13.397334-0.213333 0.576-0.426667 1.226667-0.661333 1.930666-1.386667 4.128-3.370667 10.048-7.392 15.061334-5.173333 6.432-12.810667 10.752-24 13.802666-9.312 2.528-12.618667 6.112-14.016 8.565334-1.6 2.805333-1.994667 6.325333-1.749333 11.008 0.373333 7.36-1.205333 13.909333-6.314667 19.733333-4.266667 4.885333-10.602667 8.64-17.301333 12.384-9.706667 5.44-10.186667 9.386667-10.229334 10.133333z" fill="#FFF7CD" /><path d="M753.6 415.616c2.208-1.813333 6.357333-2.677333 11.072-2.208a10.666667 10.666667 0 1 0 2.122667-21.226667c-7.04-0.704-18.133333-0.138667-26.762667 6.976-9.546667 7.872-12.778667 20.8-9.44 37.461334 1.824 9.130667 2.186667 13.312 1.728 15.829333-0.213333 1.194667-0.565333 2.496-4.234667 4.938667-5.664 3.776-13.578667 9.813333-17.674666 19.52-4.352 10.314667-3.52 22.464 3.466666 36.437333 4.693333 9.365333 4.554667 13.781333 4 16.192-0.618667 2.698667-1.962667 4.672-4.768 8.810667l-2.090666 3.093333c-3.733333 5.610667-9.013333 14.72-10.634667 24.341333-0.832 4.949333-0.821333 10.72 1.536 16.352 2.453333 5.834667 6.976 10.453333 13.205333 13.557334a10.666667 10.666667 0 1 0 9.536-19.082667c-2.24-1.12-2.826667-2.154667-3.061333-2.72-0.32-0.789333-0.576-2.197333-0.181333-4.565333 0.853333-5.024 4.032-11.072 7.36-16.042667 0.394667-0.608 0.853333-1.28 1.354666-1.994667 2.88-4.16 6.922667-9.973333 8.533334-16.96 2.08-9.045333 0.192-18.730667-5.706667-30.517333-5.013333-10.037333-4.192-15.530667-2.890667-18.602667 1.546667-3.68 4.928-6.794667 9.845334-10.069333 6.901333-4.597333 11.84-10.346667 13.397333-18.869333 1.301333-7.168-0.106667-15.328-1.802667-23.829334-2.442667-12.213333 0.8-15.744 2.090667-16.821333z" fill="#13DE64" /><path d="M732.266667 415.616c2.218667-1.813333 6.357333-2.688 11.072-2.208a10.666667 10.666667 0 0 0 2.122666-21.226667c-7.04-0.704-18.133333-0.138667-26.762666 6.976-9.546667 7.872-12.778667 20.789333-9.44 37.461334 1.824 9.130667 2.186667 13.312 1.728 15.829333-0.213333 1.194667-0.565333 2.485333-4.234667 4.938667-5.664 3.776-13.578667 9.813333-17.674667 19.52-4.352 10.314667-3.52 22.453333 3.466667 36.437333 4.693333 9.365333 4.554667 13.781333 4 16.192-0.618667 2.698667-1.962667 4.672-4.768 8.810667l-2.090667 3.093333c-3.733333 5.610667-9.013333 14.72-10.634666 24.330667-0.832 4.96-0.821333 10.730667 1.536 16.362666 2.453333 5.834667 6.976 10.453333 13.205333 13.546667a10.666667 10.666667 0 1 0 9.536-19.072c-2.24-1.12-2.826667-2.154667-3.061333-2.730667-0.32-0.778667-0.576-2.186667-0.181334-4.554666 0.853333-5.024 4.032-11.072 7.36-16.042667 0.394667-0.618667 0.853333-1.28 1.354667-1.994667 2.88-4.16 6.922667-9.973333 8.533333-16.96 2.08-9.045333 0.192-18.730667-5.706666-30.517333-5.013333-10.037333-4.192-15.530667-2.890667-18.602667 1.546667-3.68 4.928-6.794667 9.845333-10.069333 6.912-4.608 11.84-10.346667 13.397334-18.869333 1.301333-7.168-0.106667-15.328-1.802667-23.829334-2.442667-12.213333 0.8-15.744 2.090667-16.821333z" fill="#FFF7CD" /></svg>