<?xml version="1.0" standalone="no"?><!DOCTYPE svg PUBLIC "-//W3C//DTD SVG 1.1//EN" "http://www.w3.org/Graphics/SVG/1.1/DTD/svg11.dtd"><svg class="icon" width="200px" height="200.00px" viewBox="0 0 1024 1024" version="1.1" xmlns="http://www.w3.org/2000/svg"><path d="M577.813333 652.010667c120.682667 53.013333 252.437333 18.762667 294.293334-76.512 44.16-99.061333-56.085333-193.194667-111.733334-227.882667-135.658667-100.48-261.450667-63.552-279.701333-34.944l-45.568 70.848c-41.856 95.264 22.037333 215.466667 142.72 268.48z" fill="#935427" /><path d="M416.245333 373.397333l46.432-72.213333 0.032-0.032c8.448-13.205333 25.28-22.912 43.072-29.301333 18.976-6.805333 43.072-11.306667 70.613334-11.445334 55.136-0.277333 124.714667 16.992 195.989333 69.568 29.653333 18.613333 70.72 52.608 99.093333 95.712 28.746667 43.658667 46.250667 99.829333 20.138667 158.453334-48.394667 110.058667-195.488 143.146667-322.378667 87.402666C442.325333 615.786667 367.2 485.045333 415.562667 374.933333l0.682666-1.536zM872.106667 575.498667c44.16-99.061333-56.085333-193.194667-111.733334-227.882667-135.658667-100.48-261.450667-63.552-279.701333-34.944l-45.568 70.848c-41.856 95.264 22.037333 215.466667 142.72 268.490667 120.672 53.013333 252.426667 18.762667 294.282667-76.512z" fill="#62310F" /><path d="M897.226667 537.813333c-41.856 95.274667-173.610667 129.525333-294.293334 76.512-120.672-53.013333-184.565333-173.226667-142.72-268.490666 41.866667-95.264 173.621333-129.525333 294.293334-76.512 120.672 53.013333 184.576 173.226667 142.72 268.501333z" fill="#AE6937" /><path d="M916.757333 546.4c-48.373333 110.112-195.488 143.210667-322.4 87.466667C467.456 578.101333 392.32 447.36 440.693333 337.248c48.373333-110.112 195.488-143.221333 322.389334-87.466667 126.912 55.754667 202.048 186.496 153.674666 296.608z m-313.813333 67.925333c120.672 53.013333 252.426667 18.773333 294.282667-76.501333 41.856-95.274667-22.048-215.477333-142.72-268.501333-120.672-53.013333-252.426667-18.752-294.293334 76.512-41.845333 95.274667 22.048 215.477333 142.72 268.490666z" fill="#784018" /><path d="M633.333333 266.666667c-64.042667 0-115.722667 36.394667-133.034666 54.122666a10.666667 10.666667 0 1 1-15.253334-14.912C505.045333 285.397333 561.898667 245.333333 633.322667 245.333333a10.666667 10.666667 0 1 1 0 21.333334z" fill="#975728" /><path d="M675.232 635.776c61.866667-10.570667 113.28-44.746667 136.661333-97.952 41.856-95.274667-22.048-215.477333-142.72-268.501333a297.066667 297.066667 0 0 0-72.288-21.44c48.906667-8.362667 104.341333-1.962667 157.621334 21.44 120.672 53.013333 184.576 173.226667 142.72 268.501333-33.557333 76.373333-124.906667 113.536-221.994667 97.952z" fill="#93592E" /><path d="M396.330667 779.978667C519.317333 732.586667 588.693333 615.434667 551.253333 518.336c-37.418667-97.088-306.922667-87.072-429.909333-39.669333v65.066666c33.376 22.922667 54.933333 59.306667 54.933333 100.266667 0 4.757333-0.288 9.461333-0.853333 14.08 35.797333 4.544 68.288 23.221333 88 54.368 16.746667 26.453333 21.408 57.376 15.573333 87.104 37.642667 1.834667 77.845333-4.352 117.333334-19.573333z" fill="#B8692F" /><path d="M100.010667 478.666667a21.333333 21.333333 0 0 1 13.653333-19.904c64.810667-24.981333 165.973333-39.573333 255.626667-35.765334 44.928 1.909333 88.384 8.48 123.68 21.504 34.773333 12.832 65.589333 33.472 78.186666 66.165334 43.264 112.213333-37.813333 239.36-167.146666 289.216-42.197333 16.266667-85.376 22.954667-126.058667 20.970666a21.333333 21.333333 0 0 1-19.893333-25.418666c4.885333-24.842667 0.917333-50.133333-12.661334-71.573334-15.957333-25.216-42.485333-40.778667-72.650666-44.608a21.333333 21.333333 0 0 1-18.496-23.765333 94.186667 94.186667 0 0 0 0.704-11.488c0-33.12-17.408-63.253333-45.685334-82.688a21.333333 21.333333 0 0 1-9.258666-17.589333v-65.056z m21.333333 0c122.986667-47.402667 392.48-57.418667 429.909333 39.68 37.429333 97.088-31.936 214.229333-154.922666 261.632-32 12.341333-64.48 18.741333-95.68 19.733333-7.296 0.245333-14.528 0.181333-21.653334-0.16 1.386667-7.04 2.176-14.154667 2.346667-21.248 0.597333-22.88-5.141333-45.664-17.92-65.845333-19.712-31.146667-52.202667-49.834667-88-54.368 0.565333-4.629333 0.853333-9.333333 0.853333-14.090667 0-40.96-21.557333-77.344-54.933333-100.266667v-65.066666z" fill="#673512" /><path d="M268 727.861333a10.666667 10.666667 0 0 1 10.666667 10.666667v61.333333a10.666667 10.666667 0 0 1-21.333334 0v-61.333333a10.666667 10.666667 0 0 1 10.666667-10.666667z" fill="#673512" /><path d="M121.344 528.618667c132.245333-22.037333 304.533333-11.808 333.909333 64.384 22.506667 58.410667 6.389333 124.074667-36.810666 177.44 109.013333-52.224 167.936-160.992 132.810666-252.106667-37.418667-97.088-306.922667-87.072-429.909333-39.669333v49.952z" fill="#9D5622" /><path d="M396.330667 715.978667C519.317333 668.586667 588.693333 551.434667 551.253333 454.336c-37.418667-97.088-167.466667-137.376-290.453333-89.962667-62.858667 24.224-111.712 66.666667-139.456 115.349334 33.376 22.933333 54.933333 59.306667 54.933333 100.266666 0 4.768-0.288 9.472-0.853333 14.101334 35.797333 4.533333 68.288 23.210667 88 54.357333 16.746667 26.453333 21.408 57.376 15.573333 87.104 37.642667 1.834667 77.856-4.352 117.333334-19.573333z" fill="#CC7A3D" /><path d="M109.269333 497.312a21.333333 21.333333 0 0 1-6.453333-28.16c30.368-53.269333 83.232-98.826667 150.314667-124.693333 129.333333-49.845333 274.773333-10.005333 318.026666 102.208 43.264 112.213333-37.813333 239.36-167.146666 289.226666-42.197333 16.256-85.376 22.944-126.058667 20.96a21.333333 21.333333 0 0 1-19.893333-25.418666c4.885333-24.842667 0.917333-50.133333-12.661334-71.573334-15.957333-25.216-42.485333-40.789333-72.650666-44.608a21.333333 21.333333 0 0 1-18.496-23.765333c0.458667-3.765333 0.704-7.594667 0.704-11.488 0-33.12-17.397333-63.253333-45.685334-82.688z m12.074667-17.589333c27.744-48.672 76.597333-91.125333 139.456-115.349334 122.986667-47.413333 253.034667-7.125333 290.453333 89.962667 37.429333 97.098667-31.936 214.24-154.922666 261.653333-32 12.330667-64.48 18.730667-95.68 19.733334-7.296 0.234667-14.528 0.170667-21.653334-0.170667 1.386667-7.04 2.176-14.154667 2.346667-21.248 0.597333-22.88-5.141333-45.664-17.92-65.845333-19.712-31.146667-52.202667-49.834667-88-54.368 0.565333-4.629333 0.853333-9.333333 0.853333-14.090667 0-40.96-21.557333-77.344-54.933333-100.266667z" fill="#773E15" /><path d="M144.192 470.506667a10.666667 10.666667 0 0 1 14.624-3.658667c21.365333 12.821333 35.52 34.538667 44.618667 55.264a204.373333 204.373333 0 0 1 13.994666 46.944c31.786667 5.429333 55.114667 27.925333 71.189334 52.544 15.018667 23.018667 24.64 49.237333 29.674666 69.344 32.554667-4.853333 97.909333-23.573333 154.986667-69.888a10.666667 10.666667 0 0 1 13.44 16.565333c-67.018667 54.378667-144.533333 73.088-175.84 75.68l-9.504 0.778667-1.845333-9.354667c-3.690667-18.773333-13.034667-47.338667-28.778667-71.466666-15.818667-24.213333-36.8-42.133333-63.466667-43.946667l-8.938666-0.608-0.96-8.896c-1.226667-11.477333-5.301333-30.464-13.493334-49.12-8.234667-18.794667-20.074667-35.946667-36.053333-45.546667a10.666667 10.666667 0 0 1-3.648-14.624z" fill="#E08847" /><path d="M401.045333 677.205333a10.666667 10.666667 0 0 1-5.898666 13.888c-35.562667 14.378667-66.794667 20.757333-84.266667 22.208a10.666667 10.666667 0 0 1-1.76-21.269333c15.082667-1.248 44.202667-7.04 78.037333-20.714667a10.666667 10.666667 0 0 1 13.888 5.888z" fill="#F29754" /><path d="M357.098667 397.248c-0.202667 9.632-10.346667 17.226667-22.645334 16.96-12.309333-0.245333-22.133333-8.266667-21.930666-17.898667 0.213333-9.621333 10.346667-17.226667 22.656-16.96 12.309333 0.256 22.122667 8.266667 21.92 17.898667zM411.904 400.202667c-0.138667 6.592-7.082667 11.786667-15.509333 11.616-8.426667-0.181333-15.146667-5.664-15.008-12.256 0.138667-6.592 7.082667-11.797333 15.509333-11.626667 8.426667 0.181333 15.146667 5.674667 15.008 12.266667zM478.901333 421.44c-0.138667 6.592-7.082667 11.786667-15.509333 11.616-8.426667-0.181333-15.146667-5.664-15.008-12.266667 0.138667-6.581333 7.082667-11.786667 15.509333-11.605333 8.426667 0.170667 15.146667 5.653333 15.008 12.256zM428.576 431.978667c-0.106667 4.906667-5.269333 8.778667-11.541333 8.64-6.272-0.117333-11.274667-4.202667-11.178667-9.109334 0.106667-4.906667 5.269333-8.778667 11.552-8.650666 6.261333 0.128 11.264 4.213333 11.168 9.12zM375.573333 365.418667c-0.106667 4.906667-5.28 8.768-11.552 8.64-6.272-0.128-11.274667-4.213333-11.168-9.12 0.106667-4.906667 5.269333-8.778667 11.541334-8.64 6.272 0.128 11.274667 4.213333 11.168 9.12zM447.605333 383.178667c-0.106667 4.906667-5.28 8.778667-11.552 8.650666-6.272-0.128-11.264-4.213333-11.168-9.12 0.106667-4.906667 5.269333-8.778667 11.541334-8.64 6.272 0.117333 11.274667 4.202667 11.178666 9.109334zM521.418667 433.610667c-0.106667 4.906667-5.269333 8.778667-11.541334 8.64-6.272-0.128-11.274667-4.213333-11.178666-9.12 0.106667-4.906667 5.28-8.778667 11.552-8.64 6.272 0.128 11.264 4.213333 11.168 9.12zM250.496 437.802667c-0.053333 2.442667-2.624 4.373333-5.76 4.298666-3.114667-0.064-5.6-2.101333-5.546667-4.544 0.042667-2.442667 2.613333-4.373333 5.738667-4.309333 3.125333 0.074667 5.621333 2.101333 5.568 4.554667zM284.416 383.658667c-0.106667 4.906667-5.269333 8.778667-11.541333 8.64-6.272-0.117333-11.274667-4.202667-11.178667-9.12 0.106667-4.906667 5.269333-8.768 11.541333-8.64 6.272 0.128 11.274667 4.213333 11.178667 9.12zM301.045333 418.538667c-0.106667 4.906667-5.28 8.778667-11.552 8.64-6.272-0.128-11.274667-4.213333-11.168-9.12 0.106667-4.906667 5.269333-8.778667 11.541334-8.64 6.272 0.128 11.274667 4.213333 11.168 9.12zM464 459.114667c-0.106667 4.906667-5.269333 8.778667-11.541333 8.64-6.272-0.117333-11.274667-4.202667-11.178667-9.109334 0.106667-4.906667 5.28-8.778667 11.552-8.650666 6.272 0.128 11.264 4.213333 11.168 9.12zM251.818667 407.210667c-0.106667 4.906667-5.28 8.778667-11.552 8.64-6.272-0.128-11.274667-4.213333-11.168-9.12 0.106667-4.906667 5.269333-8.778667 11.541333-8.64 6.272 0.128 11.274667 4.213333 11.178667 9.12zM380.757333 438.336c-0.128 6.016-6.474667 10.773333-14.165333 10.613333-7.690667-0.170667-13.824-5.173333-13.696-11.2 0.117333-6.016 6.464-10.762667 14.154667-10.602666 7.690667 0.16 13.824 5.173333 13.706666 11.2z" fill="#BE6E34" /><path d="M667.050667 352.256c-7.424 14.784-28.768 19.072-47.658667 9.568-18.901333-9.493333-28.192-29.184-20.757333-43.968 7.424-14.773333 28.768-19.061333 47.658666-9.557333 18.901333 9.493333 28.192 29.184 20.757334 43.957333z" fill="#3C1D0C" /><path d="M771.488 319.477333c-4.330667 8.608-16.746667 11.093333-27.754667 5.568-10.997333-5.525333-16.416-16.992-12.085333-25.6 4.330667-8.597333 16.746667-11.093333 27.754667-5.557333 10.986667 5.525333 16.405333 16.981333 12.085333 25.589333zM819.68 345.728c-2.965333 5.888-11.466667 7.594667-18.997333 3.808s-11.232-11.626667-8.277334-17.514667c2.965333-5.898667 11.466667-7.605333 18.997334-3.818666s11.232 11.626667 8.277333 17.525333zM871.008 393.728c-2.954667 5.888-11.466667 7.594667-18.986667 3.808-7.541333-3.786667-11.242667-11.626667-8.277333-17.514667 2.954667-5.898667 11.466667-7.605333 18.986667-3.818666 7.541333 3.786667 11.242667 11.626667 8.277333 17.525333zM821.045333 381.589333c-2.197333 4.373333-8.533333 5.653333-14.133333 2.837334-5.610667-2.816-8.362667-8.661333-6.165333-13.045334 2.208-4.384 8.533333-5.653333 14.144-2.837333s8.362667 8.661333 6.154666 13.045333zM711.712 275.936c-2.197333 4.373333-8.533333 5.653333-14.133333 2.837333-5.610667-2.826667-8.362667-8.661333-6.165334-13.045333 2.208-4.384 8.533333-5.653333 14.144-2.837333s8.362667 8.650667 6.154667 13.045333zM711.712 314.56c-2.197333 4.394667-8.533333 5.653333-14.133333 2.848-5.610667-2.826667-8.362667-8.661333-6.165334-13.045333 2.208-4.384 8.533333-5.653333 14.144-2.837334s8.362667 8.650667 6.154667 13.045334zM841.344 421.333333c-2.197333 4.373333-8.533333 5.653333-14.133333 2.826667-5.610667-2.816-8.362667-8.650667-6.165334-13.034667 2.208-4.384 8.533333-5.653333 14.144-2.837333s8.362667 8.650667 6.154667 13.034667zM672.16 283.157333c-2.208 4.384-8.533333 5.653333-14.144 2.837334s-8.362667-8.661333-6.154667-13.045334c2.197333-4.373333 8.533333-5.653333 14.133334-2.837333 5.610667 2.816 8.362667 8.661333 6.165333 13.045333zM775.146667 366.741333c-2.698667 5.386667-10.464 6.933333-17.344 3.488-6.869333-3.456-10.261333-10.624-7.552-16 2.698667-5.376 10.464-6.933333 17.344-3.477333 6.88 3.456 10.261333 10.613333 7.552 16z" fill="#D78346" /><path d="M295.242667 469.674667c4.757333 12.576-4.405333 27.701333-20.48 33.792-16.064 6.08-32.96 0.832-37.717334-11.733334-4.757333-12.586667 4.405333-27.701333 20.48-33.792 16.064-6.090667 32.949333-0.842667 37.717334 11.733334zM479.093333 514.538667c5.866667 15.466667-5.418667 34.090667-25.194666 41.578666-19.776 7.498667-40.554667 1.034667-46.421334-14.442666-5.866667-15.466667 5.418667-34.08 25.194667-41.578667 19.776-7.488 40.554667-1.024 46.421333 14.442667zM336.032 590.336c3.626667 9.578667-3.349333 21.088-15.584 25.728-12.234667 4.64-25.098667 0.64-28.725333-8.938667-3.626667-9.568 3.36-21.088 15.594666-25.717333 12.234667-4.64 25.088-0.64 28.714667 8.928zM699.690667 517.44c-7.424 14.784-28.768 19.072-47.669334 9.568-18.890667-9.493333-28.181333-29.184-20.757333-43.957333 7.434667-14.784 28.778667-19.072 47.68-9.568 18.88 9.493333 28.181333 29.173333 20.746667 43.957333zM848.533333 479.765333c-7.434667 14.773333-28.778667 19.061333-47.68 9.557334-18.88-9.493333-28.181333-29.173333-20.746666-43.957334 7.434667-14.784 28.768-19.072 47.669333-9.568 18.890667 9.493333 28.181333 29.184 20.757333 43.968z" fill="#3C1D0C" /></svg>