<?xml version="1.0" standalone="no"?><!DOCTYPE svg PUBLIC "-//W3C//DTD SVG 1.1//EN" "http://www.w3.org/Graphics/SVG/1.1/DTD/svg11.dtd"><svg class="icon" width="200px" height="200.00px" viewBox="0 0 1024 1024" version="1.1" xmlns="http://www.w3.org/2000/svg"><path d="M146.026667 314.24v67.562667h731.946666V314.24a90.08 90.08 0 0 0-90.090666-90.08H236.117333a90.08 90.08 0 0 0-90.08 90.08z" fill="#F04343" /><path d="M123.52 404.32V314.24c0-62.186667 50.410667-112.608 112.597333-112.608h551.765334c62.186667 0 112.597333 50.421333 112.597333 112.608v90.08H123.52z m754.453333-90.08a90.08 90.08 0 0 0-90.090666-90.08H236.117333a90.08 90.08 0 0 0-90.08 90.08v67.562667h731.925334V314.24z" fill="#B90E0E" /><path d="M146.026667 359.285333h709.418666v-67.562666a89.664 89.664 0 0 0-16.128-51.445334 89.984 89.984 0 0 1 38.645334 73.962667v67.562667H146.037333v-22.517334z" fill="#DE3030" /><path d="M240.106667 247.072a16.896 16.896 0 0 1-13.877334 19.434667c-14.613333 2.432-29.269333 16.021333-34.890666 39.978666a16.896 16.896 0 0 1-32.896-7.712c7.754667-33.045333 30.4-60.288 62.229333-65.6a16.896 16.896 0 0 1 19.445333 13.898667z" fill="#FF857D" /><path d="M146.026667 426.848v349.066667a90.08 90.08 0 0 0 90.090666 90.08h551.765334a90.08 90.08 0 0 0 90.08-90.08V426.837333H146.037333z" fill="#FFDD9B" /><path d="M123.52 404.32h776.96v371.594667c0 62.186667-50.410667 112.608-112.597333 112.608H236.117333c-62.186667 0-112.597333-50.421333-112.597333-112.608V404.32z m22.506667 22.517333h731.946666v349.077334a90.08 90.08 0 0 1-90.090666 90.08H236.117333a90.08 90.08 0 0 1-90.08-90.08V426.837333z" fill="#D8A05E" /><path d="M174.208 841.354667a89.781333 89.781333 0 0 0 61.909333 24.64h551.765334a90.08 90.08 0 0 0 90.08-90.08V426.848h-22.517334v349.066667a67.562667 67.562667 0 0 1-67.562666 67.562666h-596.8a67.669333 67.669333 0 0 1-16.874667-2.122666z" fill="#EAC276" /><path d="M168.554667 470.56v229.130667c15.381333-67.434667 75.744-212.16 194.101333-251.648H191.072a22.517333 22.517333 0 0 0-22.506667 22.517333z" fill="#FFE8BC" /><path d="M811.861333 636.874667a12.053333 12.053333 0 1 1-24.128 0 12.053333 12.053333 0 0 1 24.128 0zM860.693333 665.216a16.277333 16.277333 0 1 1-32.554666 0 16.277333 16.277333 0 0 1 32.554666 0zM852.554667 612.309333a12.213333 12.213333 0 1 1-24.426667 0 12.213333 12.213333 0 0 1 24.426667 0zM862.485333 735.146667a25.322667 25.322667 0 1 1-50.656 0 25.322667 25.322667 0 0 1 50.656 0zM811.861333 689.632a16.277333 16.277333 0 1 1-32.565333 0 16.277333 16.277333 0 0 1 32.565333 0zM819.552 787.914667a9.877333 9.877333 0 1 1-19.754667 0 9.877333 9.877333 0 0 1 19.754667 0zM785.301333 818.965333a16.277333 16.277333 0 1 1-32.554666 0 16.277333 16.277333 0 0 1 32.554666 0zM787.733333 763.498667a16.277333 16.277333 0 1 1-32.554666 0 16.277333 16.277333 0 0 1 32.554666 0zM728.042667 841.12a12.213333 12.213333 0 1 1-24.416 0 12.213333 12.213333 0 0 1 24.426666 0z" fill="#ECB768" /><path d="M366.378667 281.088a47.082667 47.082667 0 1 1-94.165334 0 47.082667 47.082667 0 0 1 94.165334 0zM559.082667 281.088a47.082667 47.082667 0 1 1-94.165334 0 47.082667 47.082667 0 0 1 94.165334 0zM739.445333 281.088a47.082667 47.082667 0 1 1-94.154666 0 47.082667 47.082667 0 0 1 94.154666 0z" fill="#8C1111" /><path d="M291.018667 186.282667a28.277333 28.277333 0 1 1 56.554666 0v82.773333a28.277333 28.277333 0 1 1-56.554666 0v-82.773333zM483.722667 186.282667a28.277333 28.277333 0 0 1 56.565333 0v82.773333a28.277333 28.277333 0 1 1-56.565333 0v-82.773333zM664.085333 186.282667a28.277333 28.277333 0 0 1 56.565334 0v82.773333a28.277333 28.277333 0 1 1-56.565334 0v-82.773333z" fill="#4A7F8A" /><path d="M315.648 171.370667c6.218667 0 11.264 5.045333 11.264 11.264v47.146666a11.264 11.264 0 0 1-22.528 0v-47.146666c0-6.218667 5.045333-11.264 11.264-11.264zM504.256 171.370667c6.218667 0 11.264 5.045333 11.264 11.264v47.146666a11.264 11.264 0 1 1-22.517333 0v-47.146666c0-6.218667 5.034667-11.264 11.253333-11.264zM687.242667 171.370667c6.218667 0 11.253333 5.045333 11.253333 11.264v47.146666a11.264 11.264 0 0 1-22.506667 0v-47.146666c0-6.218667 5.034667-11.264 11.253334-11.264z" fill="#66A3B0" /><path d="M364.906667 532.192c-15.914667 2.784-30.698667 13.397333-37.888 26.954667a33.781333 33.781333 0 1 1-59.690667-31.648c17.386667-32.778667 50.378667-55.626667 85.898667-61.856 36.928-6.474667 77.578667 4.981333 105.6 41.621333 25.525333 33.376 24.64 71.776 11.52 102.901333-12.704 30.122667-37.354667 55.637333-65.088 70.464l-3.285334 1.76c-25.6 13.674667-45.28 24.181333-58.72 38.773334h121.173334a33.781333 33.781333 0 1 1 0 67.562666H290.933333a33.781333 33.781333 0 0 1-33.226666-39.872c13.546667-74.026667 68.138667-102.752 107.818666-123.637333 2.698667-1.429333 5.333333-2.805333 7.872-4.16 15.114667-8.096 28.437333-22.346667 34.666667-37.141333 5.824-13.792 4.842667-25.461333-2.912-35.605334-11.264-14.72-25.728-18.666667-40.256-16.117333z" fill="#248FCC" /><path d="M387.786667 487.189333a11.264 11.264 0 0 1-11.093334 11.434667c-48.533333 0.768-74.133333 30.72-80.448 43.925333a11.264 11.264 0 1 1-20.309333-9.717333c9.386667-19.637333 41.984-55.797333 100.405333-56.725333a11.264 11.264 0 0 1 11.445334 11.093333z" fill="#36A8EA" /><path d="M555.765333 501.514667a33.781333 33.781333 0 0 1 33.493334-29.397334h123.210666a33.781333 33.781333 0 1 1 0 67.562667h-93.568l-4.416 33.706667a139.157333 139.157333 0 0 1 22.229334-1.034667c31.936 1.088 66.528 13.834667 91.552 46.250667 26.261333 34.026667 26.698667 73.557333 14.773333 105.002666-11.402667 30.058667-35.722667 57.130667-66.090667 67.264-51.136 17.034667-110.666667-1.045333-143.04-40.672a33.781333 33.781333 0 1 1 52.32-42.741333c14.645333 17.92 44.853333 27.477333 69.354667 19.306667 7.434667-2.474667 18.581333-12.085333 24.277333-27.104 5.173333-13.632 4.330667-27.584-5.077333-39.765334-10.645333-13.792-24.885333-19.488-40.373333-20.021333-16.512-0.565333-32.266667 4.981333-41.130667 11.2a33.781333 33.781333 0 0 1-52.917333-32.021333l15.402666-117.546667z" fill="#248FCC" /><path d="M570.144 505.6a22.517333 22.517333 0 0 1 22.272-19.157333h103.978667a11.264 11.264 0 1 1 0 22.517333h-103.978667l-12.981333 85.781333a11.264 11.264 0 1 1-22.272-3.36l12.981333-85.792zM697.770667 664.042667a11.264 11.264 0 0 1 11.968 10.506666c2.4 37.216-14.794667 60.586667-32.821334 74.197334a102.741333 102.741333 0 0 1-33.354666 16.522666 55.68 55.68 0 0 1-4.053334 0.938667h-0.021333a11.264 11.264 0 0 1-3.626667-22.229333h0.053334a69.685333 69.685333 0 0 0 8.213333-2.592 80.298667 80.298667 0 0 0 19.221333-10.613334c13.205333-9.973333 25.738667-26.538667 23.914667-54.773333a11.264 11.264 0 0 1 10.517333-11.957333zM367.338667 650.410667a11.264 11.264 0 0 1-5.888 14.794666c-44.928 19.349333-66.026667 66.229333-70.709334 87.136a11.264 11.264 0 1 1-21.973333-4.928c5.525333-24.650667 29.621333-79.573333 83.776-102.890666a11.264 11.264 0 0 1 14.794667 5.888z" fill="#36A8EA" /></svg>