<?xml version="1.0" standalone="no"?><!DOCTYPE svg PUBLIC "-//W3C//DTD SVG 1.1//EN" "http://www.w3.org/Graphics/SVG/1.1/DTD/svg11.dtd"><svg class="icon" width="200px" height="200.00px" viewBox="0 0 1024 1024" version="1.1" xmlns="http://www.w3.org/2000/svg"><path d="M832 576c0 176.736-143.264 320-320 320-176.736 0-320-143.264-320-320 0-176.736 143.264-320 320-320 176.736 0 320 143.264 320 320z" fill="#FCE72D" /><path d="M853.333333 576c0 188.512-152.821333 341.333333-341.333333 341.333333-188.512 0-341.333333-152.821333-341.333333-341.333333 0-188.512 152.821333-341.333333 341.333333-341.333333 188.512 0 341.333333 152.821333 341.333333 341.333333zM512 896c176.736 0 320-143.264 320-320 0-176.736-143.264-320-320-320-176.736 0-320 143.264-320 320 0 176.736 143.264 320 320 320z" fill="#FF3D3D" /><path d="M384 810.666667c176.736 0 320-143.264 320-320a318.837333 318.837333 0 0 0-83.818667-215.914667C743.669333 319.104 832 437.226667 832 576c0 176.736-143.264 320-320 320-93.514667 0-177.674667-40.106667-236.181333-104.074667A319.424 319.424 0 0 0 384 810.666667z" fill="#EFDB23" /><path d="M469.333333 874.666667c176.736 0 320-143.274667 320-320 0-116.842667-62.613333-219.050667-156.117333-274.912C749.845333 327.530667 832 442.165333 832 576c0 176.736-143.264 320-320 320a318.506667 318.506667 0 0 1-163.882667-45.088A319.061333 319.061333 0 0 0 469.333333 874.666667z" fill="#DDC917" /><path d="M535.338667 462.005333c0 76.949333-62.389333 139.328-139.338667 139.328s-139.338667-62.378667-139.338667-139.338666c0-76.949333 62.389333-139.328 139.338667-139.328s139.338667 62.378667 139.338667 139.338666z" fill="#F9F371" /><path d="M707.338667 765.333333a10.666667 10.666667 0 1 1-21.333334 0 10.666667 10.666667 0 0 1 21.333334 0zM730.666667 708a15.338667 15.338667 0 1 1-30.666667 0 15.338667 15.338667 0 0 1 30.666667 0zM791.338667 669.333333a15.338667 15.338667 0 1 1-30.677334 0 15.338667 15.338667 0 0 1 30.677334 0zM668.672 732.672a15.338667 15.338667 0 1 1-30.677333 0 15.338667 15.338667 0 0 1 30.677333 0zM668.672 811.338667a15.338667 15.338667 0 1 1-30.677333 0 15.338667 15.338667 0 0 1 30.677333 0zM583.338667 833.333333a8.672 8.672 0 1 1-17.344 0 8.672 8.672 0 0 1 17.344 0zM629.333333 767.338667a8.672 8.672 0 1 1-17.333333 0 8.672 8.672 0 0 1 17.333333 0zM705.333333 660.672a8.672 8.672 0 1 1-17.333333 0 8.672 8.672 0 0 1 17.333333 0zM432.490667 846.666667a8.672 8.672 0 1 1-17.333334 0 8.672 8.672 0 0 1 17.333334 0zM800 601.333333a8.672 8.672 0 1 1-17.333333 0 8.672 8.672 0 0 1 17.333333 0zM756.330667 557.333333a8.661333 8.661333 0 1 1-17.333334 0 8.661333 8.661333 0 0 1 17.333334 0zM784.672 476.672a8.672 8.672 0 1 1-17.344 0 8.672 8.672 0 0 1 17.344 0zM620.672 846.666667a8.672 8.672 0 1 1-17.344 0 8.672 8.672 0 0 1 17.344 0zM542.666667 850.666667a8.672 8.672 0 1 1-17.333334 0 8.672 8.672 0 0 1 17.333334 0zM592 787.338667a8.672 8.672 0 1 1-17.333333 0 8.672 8.672 0 0 1 17.333333 0zM494.005333 850.666667a8.672 8.672 0 1 1-17.344 0 8.672 8.672 0 0 1 17.344 0zM476.672 815.669333a8.661333 8.661333 0 1 1-17.333333 0 8.661333 8.661333 0 0 1 17.322666 0zM587.338667 741.333333a8.672 8.672 0 1 1-17.344 0 8.672 8.672 0 0 1 17.344 0zM742.005333 754.666667a8.672 8.672 0 1 1-17.344 0 8.672 8.672 0 0 1 17.344 0zM556 815.669333a13.002667 13.002667 0 1 1-26.005333 0 13.002667 13.002667 0 0 1 26.005333 0zM776 719.669333a13.002667 13.002667 0 1 1-26.005333 0 13.002667 13.002667 0 0 1 26.005333 0zM760.672 614.336a13.002667 13.002667 0 1 1-26.005333 0 13.002667 13.002667 0 0 1 26.005333 0zM804.330667 535.669333a13.002667 13.002667 0 1 1-25.994667 0 13.002667 13.002667 0 0 1 25.994667 0z" fill="#D3C012" /><path d="M383.829333 364.021333a21.333333 21.333333 0 0 1-5.674666 29.632c-9.205333 6.250667-35.829333 30.858667-52.266667 70.517334a21.333333 21.333333 0 0 1-39.413333-16.341334c19.818667-47.808 52.053333-78.848 67.733333-89.482666a21.333333 21.333333 0 0 1 29.621333 5.674666z" fill="#FFFFFF" /><path d="M206.794667 709.568a10.666667 10.666667 0 0 1 14.965333 1.898667c25.28 32.608 126.805333 105.44 306.336 98.005333 90.069333-3.733333 154.346667-20.629333 197.930667-39.861333 43.936-19.402667 66.037333-40.8 73.098666-52.864a10.666667 10.666667 0 0 1 18.410667 10.773333c-10.218667 17.461333-36.842667 41.28-82.901333 61.610667-46.4 20.48-113.386667 37.834667-205.653334 41.653333-185.162667 7.68-293.845333-67.242667-324.074666-106.24a10.666667 10.666667 0 0 1 1.888-14.976zM780.288 367.221333a16 16 0 0 1 3.157333 22.4c-10.4 13.813333-35.253333 30.432-75.424 44.224-40.928 14.048-99.626667 25.834667-180.192 28.426667-161.237333 5.194667-254.165333-42.538667-282.496-70.976a16 16 0 0 1 22.666667-22.592c19.946667 20.010667 102.858667 66.613333 258.805333 61.589333 78.037333-2.517333 133.482667-13.898667 170.826667-26.72 38.090667-13.077333 55.616-27.04 60.256-33.194666a16 16 0 0 1 22.4-3.157334zM663.658667 275.509333a16 16 0 0 1 2.496 22.485334c-7.125333 8.917333-22.506667 18.08-45.056 25.365333-23.328 7.530667-56.405333 13.738667-101.408 15.104-45.386667 1.376-81.152-4.277333-107.68-12.170667-26.101333-7.776-44.181333-18.016-53.333334-26.666666a16 16 0 1 1 21.973334-23.253334c4.181333 3.946667 17.066667 12.266667 40.490666 19.242667 23.008 6.858667 55.349333 12.138667 97.578667 10.858667 42.634667-1.290667 72.64-7.136 92.544-13.568 9.962667-3.221333 17.248-6.538667 22.282667-9.408a47.04 47.04 0 0 0 5.674666-3.733334 19.722667 19.722667 0 0 0 1.952-1.76 16 16 0 0 1 22.485334-2.496z" fill="#FF3D3D" /><path d="M443.968 608.992l38.677333-9.866667a4.266667 4.266667 0 0 0 2.72-2.154666l12.48-23.701334 10.005334-18.997333a4.266667 4.266667 0 0 1 7.328-0.373333l26.634666 40.256a4.266667 4.266667 0 0 0 2.922667 1.856l39.466667 5.973333a4.266667 4.266667 0 0 1 2.56 7.050667l-30.197334 33.813333a4.266667 4.266667 0 0 0-0.96 3.882667l9.525334 38.122666a4.266667 4.266667 0 0 1-5.866667 4.938667l-39.914667-17.770667a4.266667 4.266667 0 0 0-3.850666 0.192L477.546667 693.866667a4.266667 4.266667 0 0 1-6.336-4.32l5.674666-38.88a4.266667 4.266667 0 0 0-1.344-3.765334l-33.408-30.634666a4.266667 4.266667 0 0 1 1.824-7.285334z" fill="#FF3D3D" /><path d="M541.813333 594.154667a4.266667 4.266667 0 0 0 2.922667 1.856l39.466667 5.973333a4.266667 4.266667 0 0 1 2.56 7.050667l-30.197334 33.813333a4.266667 4.266667 0 0 0-0.96 3.882667l9.525334 38.133333a4.266667 4.266667 0 0 1-5.866667 4.928l-39.914667-17.770667a4.266667 4.266667 0 0 0-3.850666 0.192L477.546667 693.866667a4.266667 4.266667 0 0 1-6.336-4.32l5.674666-38.88a4.266667 4.266667 0 0 0-1.344-3.765334l-33.408-30.634666a4.266667 4.266667 0 0 1 1.824-7.285334l38.677334-9.866666a4.266667 4.266667 0 0 0 2.72-2.144l22.485333-42.709334a4.266667 4.266667 0 0 1 7.328-0.362666l26.634667 40.245333z m-71.786666-13.824l18.944-36c9.066667-17.216 33.258667-18.421333 44-2.197334l22.453333 33.92 31.968 4.832c20.117333 3.04 28.821333 27.189333 15.274667 42.357334l-24.170667 27.082666 7.338667 29.365334c5.173333 20.693333-15.765333 38.272-35.253334 29.589333l-32.010666-14.261333-30.432 17.386666c-18.517333 10.581333-41.109333-4.810667-38.026667-25.92l4.373333-29.952-26.762666-24.533333c-14.986667-13.738667-8.746667-38.645333 10.965333-43.669333l31.338667-8z" fill="#F9F371" /><path d="M683.413333 574.912l25.813334-1.877333a4.266667 4.266667 0 0 0 3.050666-1.621334l11.488-14.730666 8.213334-10.549334a4.266667 4.266667 0 0 1 7.285333 0.938667l12.682667 29.44a4.266667 4.266667 0 0 0 2.549333 2.346667l24.490667 8.32a4.266667 4.266667 0 0 1 1.258666 7.402666l-23.349333 18.282667a4.266667 4.266667 0 0 0-1.632 3.648l1.685333 25.013333a4.266667 4.266667 0 0 1-6.656 3.818667l-23.36-15.872a4.266667 4.266667 0 0 0-3.84-0.490667l-26.624 9.450667a4.266667 4.266667 0 0 1-5.472-5.376l7.957334-23.786667a4.266667 4.266667 0 0 0-0.661334-3.936l-17.962666-23.584a4.266667 4.266667 0 0 1 3.082666-6.837333z" fill="#FF3D3D" /><path d="M756.949333 641.525333a4.266667 4.266667 0 0 1-6.656 3.818667l-23.36-15.872a4.266667 4.266667 0 0 0-3.84-0.490667l-26.624 9.450667a4.266667 4.266667 0 0 1-5.472-5.376l7.957334-23.786667a4.266667 4.266667 0 0 0-0.661334-3.936l-17.962666-23.584a4.266667 4.266667 0 0 1 3.082666-6.837333l25.813334-1.866667a4.266667 4.266667 0 0 0 3.050666-1.632l19.701334-25.28a4.266667 4.266667 0 0 1 7.285333 0.938667l12.682667 29.44a4.266667 4.266667 0 0 0 2.549333 2.346667l24.490667 8.32a4.266667 4.266667 0 0 1 1.258666 7.402666l-23.349333 18.282667a4.266667 4.266667 0 0 0-1.632 3.648l1.685333 25.013333z m-56.832-89.216l-18.24 1.322667c-20.288 1.461333-30.848 24.864-18.517333 41.045333l12.490667 16.405334-5.088 15.210666c-6.762667 20.234667 12.746667 39.381333 32.853333 32.245334l18.474667-6.56 16.213333 11.018666c17.653333 11.978667 41.365333-1.610667 39.936-22.901333l-1.077333-16 16.234666-12.714667c16.010667-12.544 11.712-37.845333-7.541333-44.394666l-17.322667-5.888-9.674666-22.464c-7.701333-17.877333-31.733333-20.96-43.701334-5.610667l-15.04 19.285333z" fill="#F9F371" /><path d="M258.037333 594.912l20.864-15.296a4.266667 4.266667 0 0 0 1.728-3.008l1.898667-18.581333 1.365333-13.301334a4.266667 4.266667 0 0 1 6.666667-3.082666l26.378667 18.197333a4.266667 4.266667 0 0 0 3.413333 0.64l25.173333-5.973333a4.266667 4.266667 0 0 1 4.992 5.610666l-10.058666 27.893334a4.266667 4.266667 0 0 0 0.554666 3.946666l14.72 20.298667a4.266667 4.266667 0 0 1-3.605333 6.773333l-28.234667-1.024a4.266667 4.266667 0 0 0-3.498666 1.610667l-17.536 22.165333a4.266667 4.266667 0 0 1-7.488-1.642666l-5.909334-24.373334a4.266667 4.266667 0 0 0-2.645333-2.986666l-27.754667-10.432a4.266667 4.266667 0 0 1-1.024-7.434667z" fill="#FF3D3D" /><path d="M355.733333 612.266667a4.266667 4.266667 0 0 1-3.605333 6.762666l-28.234667-1.024a4.266667 4.266667 0 0 0-3.498666 1.610667l-17.536 22.165333a4.266667 4.266667 0 0 1-7.488-1.642666l-5.909334-24.373334a4.266667 4.266667 0 0 0-2.645333-2.986666l-27.754667-10.432a4.266667 4.266667 0 0 1-1.024-7.434667l20.864-15.296a4.266667 4.266667 0 0 0 1.728-3.008l3.253334-31.882667a4.266667 4.266667 0 0 1 6.666666-3.072l26.389334 18.186667a4.266667 4.266667 0 0 0 3.413333 0.64l25.173333-5.973333a4.266667 4.266667 0 0 1 4.992 5.610666l-10.058666 27.893334a4.266667 4.266667 0 0 0 0.554666 3.946666l14.72 20.298667z m-95.562666-45.376L245.44 577.706667c-16.405333 12.021333-12.906667 37.450667 6.122667 44.608l19.306666 7.253333 3.776 15.594667c5.024 20.736 31.722667 26.581333 44.96 9.845333l12.16-15.370667 19.594667 0.714667c21.333333 0.768 34.186667-23.349333 21.653333-40.618667l-9.418666-12.981333 6.997333-19.402667c6.901333-19.136-10.186667-38.293333-29.973333-33.6l-17.802667 4.224-20.138667-13.888c-16.021333-11.050667-38.016-0.885333-40 18.464l-2.496 24.341334z" fill="#F9F371" /><path d="M538.56 151.018667h-51.114667a21.333333 21.333333 0 0 0-20.821333 16.704l-17.621333 79.296c21.226667 6.773333 76.533333 16.266667 128 0l-17.621334-79.296a21.333333 21.333333 0 0 0-20.832-16.704z" fill="#E8A92E" /><path d="M597.824 242.389333a21.333333 21.333333 0 0 1-14.4 24.970667c-56.981333 18.016-117.034667 7.605333-140.906667-0.021333a21.333333 21.333333 0 0 1-14.346666-24.949334l17.621333-79.296a42.666667 42.666667 0 0 1 41.653333-33.408h51.104a42.666667 42.666667 0 0 1 41.653334 33.408l17.621333 79.296z m-148.821333 4.629334l17.621333-79.296a21.333333 21.333333 0 0 1 20.821333-16.704h51.104a21.333333 21.333333 0 0 1 20.832 16.704l17.621334 79.296c-51.466667 16.266667-106.773333 6.773333-128 0z" fill="#BE8412" /><path d="M487.754667 160.213333a10.666667 10.666667 0 0 1 8.373333 12.544l-7.338667 36.672a10.666667 10.666667 0 0 1-20.906666-4.192l7.328-36.661333a10.666667 10.666667 0 0 1 12.544-8.373333z" fill="#FDC73E" /><path d="M542.186667 129.344c0 14.549333-12.213333 26.346667-27.274667 26.346667-15.072 0-27.285333-11.797333-27.285333-26.346667s12.213333-26.346667 27.274666-26.346667c15.072 0 27.285333 11.797333 27.285334 26.346667z" fill="#BE8412" /><path d="M514.912 123.712c0 5.141333-4.32 9.301333-9.642667 9.301333-5.333333 0-9.642667-4.16-9.642666-9.301333s4.309333-9.312 9.642666-9.312c5.322667 0 9.642667 4.16 9.642667 9.312z" fill="#F0BA2F" /></svg>