<?xml version="1.0" standalone="no"?><!DOCTYPE svg PUBLIC "-//W3C//DTD SVG 1.1//EN" "http://www.w3.org/Graphics/SVG/1.1/DTD/svg11.dtd"><svg class="icon" width="200px" height="200.00px" viewBox="0 0 1024 1024" version="1.1" xmlns="http://www.w3.org/2000/svg"><path d="M735.168 795.914667l101.578667-411.616c-12.490667-20.650667-232-66.453333-329.525334-86.784L446.08 631.445333c-56.96-14.005333-154.005333-21.397333-205.717333-12.149333-52.757333 9.44-113.429333 5.386667-127.690667 94.922667-10.112 63.413333 61.152 93.76 100.010667 106.976 76.021333 25.866667 244.768 76.672 357.354666 87.893333 110.464 10.986667 155.402667-66.133333 165.130667-113.173333z" fill="#E73434" /><path d="M859.584 380.821333l-103.605333 419.829334c-5.674667 27.008-21.216 62.186667-51.274667 89.418666-30.88 27.968-75.754667 46.314667-136.789333 40.234667-115.210667-11.466667-285.973333-63.008-362.101334-88.917333-19.914667-6.773333-50.4-18.613333-74.848-38.208-24.981333-20.032-46.037333-50.421333-39.36-92.32 3.936-24.693333 11.306667-44.437333 22.048-60.032 10.88-15.765333 24.469333-26.24 39.157334-33.322667 14.378667-6.933333 29.589333-10.517333 43.658666-12.992a650.485333 650.485333 0 0 1 20.288-3.136l0.533334-0.074667a573.12 573.12 0 0 0 19.317333-3.008c28.373333-5.066667 67.552-5.418667 106.026667-2.933333 29.802667 1.92 60.266667 5.621333 86.432 10.592l61.109333-333.781333 21.397333 4.469333c48.714667 10.144 128.298667 26.741333 197.301334 43.413333 34.453333 8.32 66.666667 16.746667 91.232 24.490667 12.224 3.84 23.072 7.68 31.52 11.413333 4.202667 1.866667 8.32 3.914667 11.882666 6.186667 3.008 1.92 8.074667 5.461333 11.488 11.104l4.586667 7.573333zM446.08 631.445333c-6.474667-1.6-13.472-3.093333-20.853333-4.512-57.6-10.965333-139.029333-15.84-184.853334-7.637333-6.72 1.205333-13.578667 2.186667-20.448 3.178667-47.029333 6.752-94.805333 13.610667-107.253333 91.733333-10.112 63.434667 61.152 93.76 100.010667 106.986667 76.021333 25.866667 244.768 76.672 357.354666 87.893333 110.464 10.986667 155.402667-66.133333 165.130667-113.173333l101.578667-411.616c-11.669333-19.274667-203.829333-60.501333-308.629334-82.421334l-20.896-4.362666-61.141333 333.930666z" fill="#811313" /><path d="M565.333333 64a21.333333 21.333333 0 0 1 21.333334 21.333333v200.672a21.333333 21.333333 0 1 1-42.666667 0V85.333333a21.333333 21.333333 0 0 1 21.333333-21.333333z" fill="#48A2B6" /><path d="M535.658667 412.586667a21.333333 21.333333 0 0 1 15.744 25.738666L507.413333 620.992a21.333333 21.333333 0 1 1-41.472-9.994667l44-182.656a21.333333 21.333333 0 0 1 25.728-15.744z" fill="#FB5B5B" /><path d="M768.821333 357.536l-97.653333 395.712c-9.728 47.04-54.666667 124.16-165.130667 113.173333-112.586667-11.221333-281.333333-62.037333-357.354666-87.893333a350.506667 350.506667 0 0 1-20.298667-7.573333c21.632 26.453333 59.541333 41.813333 84.298667 50.24 76.021333 25.866667 244.768 76.672 357.354666 87.893333 110.464 10.986667 155.402667-66.133333 165.130667-113.173333l101.578667-411.616c-4.106667-6.794667-30.666667-16.32-67.925334-26.773334z" fill="#C42727" /><path d="M836.746667 384.298667l-101.578667 411.616c-0.928 4.48-2.176 9.248-3.776 14.186666l84.021333-340.469333c-12.266667-20.266667-224-64.778667-324.021333-85.632l15.829333-86.485333c97.525333 20.330667 317.034667 66.133333 329.525334 86.784z" fill="#AE1E1E" /><path d="M742.944 764.309333l-7.776 31.605334c-9.728 47.04-54.666667 124.16-165.130667 113.173333-32.490667-3.242667-69.653333-9.770667-107.914666-18.058667C478.869333 802.677333 554.538667 736 645.333333 736c35.786667 0 69.216 10.346667 97.610667 28.309333z" fill="#E99345" /><path d="M470.048 861.824a194.741333 194.741333 0 0 0-7.925333 29.205333c38.261333 8.277333 75.424 14.816 107.914666 18.048 110.464 10.997333 155.402667-66.133333 165.130667-113.173333l7.776-31.594667a182.325333 182.325333 0 0 0-68.106667-25.92l-3.669333 14.858667c-9.728 47.04-54.666667 124.16-165.130667 113.173333a707.914667 707.914667 0 0 1-35.989333-4.586666z" fill="#CA7B32" /><path d="M543.168 767.264c-41.749333 28.384-65.952 74.346667-70.752 109.909333a10.666667 10.666667 0 1 1-21.141333-2.848c5.578667-41.365333 32.970667-92.8 79.893333-124.693333 47.637333-32.384 114.474667-44.064 196.981333-6.933333a10.666667 10.666667 0 0 1-8.757333 19.445333c-76.234667-34.304-135.168-22.784-176.213333 5.12z" fill="#FFAF66" /><path d="M455.232 238.112a53.333333 53.333333 0 0 1 61.76-43.306667l347.413333 60.938667a53.333333 53.333333 0 0 1 43.306667 61.749333l-6.528 37.226667a53.333333 53.333333 0 0 1-61.749333 43.328l-347.413334-60.949333a53.333333 53.333333 0 0 1-43.306666-61.76l6.517333-37.226667z" fill="#CEFCEB" /><path d="M520.672 173.781333l347.413333 60.949334a74.666667 74.666667 0 0 1 60.64 86.442666l-6.528 37.237334a74.666667 74.666667 0 0 1-86.453333 60.64l-347.413333-60.949334a74.666667 74.666667 0 0 1-60.64-86.442666l6.538666-37.226667a74.666667 74.666667 0 0 1 86.442667-60.650667z m-3.690667 21.013334a53.333333 53.333333 0 0 0-61.738666 43.306666l-6.538667 37.248a53.333333 53.333333 0 0 0 43.306667 61.749334l347.424 60.938666a53.333333 53.333333 0 0 0 61.749333-43.306666l6.528-37.237334a53.333333 53.333333 0 0 0-43.306667-61.749333l-347.413333-60.949333z" fill="#79DAB8" /><path d="M506.24 305.216a16 16 0 0 1 18.538667-12.970667l338.656 59.786667a16 16 0 0 1-5.568 31.52l-338.645334-59.797333a16 16 0 0 1-12.981333-18.538667z" fill="#9FF3F3" /><path d="M483.594667 221.418667a16 16 0 0 1 18.613333-12.864l133.333333 24.373333a16 16 0 1 1-5.76 31.477333l-133.333333-24.373333a16 16 0 0 1-12.853333-18.613333z" fill="#FFFFFF" /><path d="M502.549333 456.746667c-10.890667 1.290667-21.493333 5.856-27.701333 9.6a10.666667 10.666667 0 0 1-11.029333-18.272c8.192-4.928 21.653333-10.784 36.202666-12.522667 14.634667-1.749333 31.957333 0.565333 45.056 14.293333 21.578667 22.613333 45.013333 23.818667 65.738667 21.621334 4.522667-0.490667 9.738667-1.856 16.053333-3.648l2.186667-0.64c5.482667-1.557333 11.626667-3.328 17.706667-4.48 13.930667-2.613333 31.008-2.592 43.914666 12.416 9.354667 10.88 14.122667 15.477333 19.626667 17.92 5.408 2.389333 12.885333 3.242667 29.088 2.069333l5.237333-0.394667a300.032 300.032 0 0 1 17.152-1.002666c6.944-0.117333 13.941333 0.32 20.672 2.453333 14.432 4.565333 24.405333 15.712 32.874667 34.858667a10.666667 10.666667 0 1 1-19.52 8.629333c-7.221333-16.362667-13.6-21.194667-19.776-23.146667-3.573333-1.12-7.946667-1.568-13.877333-1.461333-4.608 0.074667-9.578667 0.458667-15.445334 0.906667-1.834667 0.138667-3.754667 0.288-5.781333 0.426666-16.512 1.205333-28.661333 0.864-39.274667-3.84-10.528-4.661333-18.186667-13.077333-27.157333-23.509333-5.408-6.293333-12.522667-7.466667-23.786667-5.354667-5.013333 0.949333-10.154667 2.421333-15.744 4.021334l-2.261333 0.64c-6.154667 1.76-13.034667 3.648-19.626667 4.341333-23.786667 2.528-55.285333 1.386667-83.424-28.096-6.784-7.104-16.277333-9.130667-27.093333-7.84z" fill="#811313" /><path d="M517.781333 444.309333a72.768 72.768 0 0 0-25.866666 8.405334 10.666667 10.666667 0 0 1-10.496-18.570667 94.037333 94.037333 0 0 1 33.994666-11.029333c13.621333-1.525333 29.952 0.437333 42.442667 12.693333 19.989333 19.637333 41.834667 20.768 61.312 18.826667 4.234667-0.426667 9.109333-1.621333 15.018667-3.2l2.058666-0.554667c5.12-1.376 10.901333-2.922667 16.586667-3.936 12.949333-2.272 29.077333-2.368 41.418667 11.093333 8.746667 9.525333 13.109333 13.450667 18.133333 15.541334 5.024 2.08 12.021333 2.837333 27.2 1.813333l4.906667-0.352c5.642667-0.405333 11.104-0.8 16.074666-0.885333 6.506667-0.106667 13.056 0.288 19.381334 2.165333 13.632 4.032 23.189333 14.005333 31.274666 31.125333a10.666667 10.666667 0 0 1-19.296 9.109334c-6.624-14.048-12.373333-18.101333-18.037333-19.786667-3.328-0.981333-7.413333-1.365333-12.981333-1.28-4.309333 0.074667-8.96 0.405333-14.464 0.8l-5.408 0.384c-15.456 1.045333-26.848 0.746667-36.832-3.392-9.973333-4.149333-17.258667-11.648-25.674667-20.821333-4.8-5.248-11.338667-6.378667-21.994667-4.501334-4.693333 0.832-9.493333 2.112-14.72 3.52l-2.122666 0.565334c-5.76 1.546667-12.224 3.2-18.4 3.818666-22.186667 2.208-51.808 1.269333-78.378667-24.821333-6.144-6.026667-14.933333-7.872-25.130667-6.72z" fill="#BEC11F" /><path d="M566.133333 876.714667a10.346667 10.346667 0 1 1-18.101333-10.026667 10.346667 10.346667 0 0 1 18.101333 10.026667zM611.616 870.389333a10.346667 10.346667 0 1 1-18.101333-10.026666 10.346667 10.346667 0 0 1 18.101333 10.026666zM723.648 796.448a13.973333 13.973333 0 1 1-24.426667-13.525333 13.973333 13.973333 0 0 1 24.426667 13.525333zM529.685333 854.741333a10.474667 10.474667 0 1 1-18.325333-10.144 10.474667 10.474667 0 0 1 18.325333 10.144zM689.792 815.477333a21.728 21.728 0 1 1-38.005333-21.045333 21.728 21.728 0 0 1 38.005333 21.045333zM652.650667 768.298667a13.973333 13.973333 0 1 1-24.437334-13.525334 13.973333 13.973333 0 0 1 24.426667 13.525334zM658.933333 863.530667a13.973333 13.973333 0 1 1-24.437333-13.525334 13.973333 13.973333 0 0 1 24.426667 13.525334zM622.848 824.277333a8.469333 8.469333 0 1 1-14.826667-8.202666 8.469333 8.469333 0 0 1 14.826667 8.213333zM584.245333 833.354667a13.973333 13.973333 0 1 1-24.426666-13.525334 13.973333 13.973333 0 0 1 24.426666 13.536zM609.12 792.746667a13.973333 13.973333 0 1 1-24.426667-13.546667 13.973333 13.973333 0 0 1 24.426667 13.546667zM543.925333 815.328a10.474667 10.474667 0 1 1-18.336-10.154667 10.474667 10.474667 0 0 1 18.336 10.154667z" fill="#B86A0F" /><path d="M628.874667 249.205333a10.666667 10.666667 0 0 1 8.874666 12.202667l-9.770666 62.037333a10.666667 10.666667 0 1 1-21.077334-3.306666l9.781334-62.048a10.666667 10.666667 0 0 1 12.192-8.885334z" fill="#3DB7D1" /><path d="M660.736 271.818667a10.666667 10.666667 0 0 1-5.44 14.058666l-57.472 25.365334a10.666667 10.666667 0 1 1-8.608-19.52l57.461333-25.354667a10.666667 10.666667 0 0 1 14.058667 5.44z" fill="#3DB7D1" /><path d="M652.266667 319.893333a10.666667 10.666667 0 0 1-15.082667 0.32l-45.333333-43.466666a10.666667 10.666667 0 0 1 14.752-15.392l45.333333 43.466666a10.666667 10.666667 0 0 1 0.32 15.082667zM756.416 279.061333a10.666667 10.666667 0 0 1 0.234667 15.082667l-43.712 45.098667a10.666667 10.666667 0 1 1-15.317334-14.848l43.712-45.098667a10.666667 10.666667 0 0 1 15.082667-0.234667z" fill="#3DB7D1" /><path d="M769.450667 315.893333a10.666667 10.666667 0 0 1-12.554667 8.362667l-61.578667-12.352a10.666667 10.666667 0 1 1 4.192-20.917333l61.589334 12.352a10.666667 10.666667 0 0 1 8.352 12.554666z" fill="#3DB7D1" /><path d="M734.826667 350.325333a10.666667 10.666667 0 0 1-12.501334-8.426666l-12.042666-61.642667a10.666667 10.666667 0 1 1 20.938666-4.085333l12.042667 61.642666a10.666667 10.666667 0 0 1-8.426667 12.512zM863.125333 325.12a10.666667 10.666667 0 0 1-5.909333 13.888l-47.658667 19.189333a10.666667 10.666667 0 1 1-7.968-19.786666l47.658667-19.2a10.666667 10.666667 0 0 1 13.866667 5.92z" fill="#3DB7D1" /><path d="M860.416 358.826667a10.666667 10.666667 0 0 1-14.869333 2.549333l-41.92-29.685333a10.666667 10.666667 0 1 1 12.32-17.408l41.92 29.685333a10.666667 10.666667 0 0 1 2.56 14.869333z" fill="#3DB7D1" /><path d="M821.088 373.845333a10.666667 10.666667 0 0 1-8.021333-12.778666l11.477333-50.08a10.666667 10.666667 0 0 1 20.8 4.768l-11.477333 50.08a10.666667 10.666667 0 0 1-12.778667 8.010666zM563.296 250.645333a10.666667 10.666667 0 0 1-5.909333 13.866667l-47.658667 19.2a10.666667 10.666667 0 1 1-7.968-19.786667l47.658667-19.2a10.666667 10.666667 0 0 1 13.866666 5.92z" fill="#3DB7D1" /><path d="M560.586667 284.352a10.666667 10.666667 0 0 1-14.869334 2.538667l-41.92-29.685334a10.666667 10.666667 0 1 1 12.32-17.408l41.92 29.685334a10.666667 10.666667 0 0 1 2.56 14.869333z" fill="#3DB7D1" /><path d="M521.258667 299.36a10.666667 10.666667 0 0 1-8.010667-12.778667l11.466667-50.08a10.666667 10.666667 0 0 1 20.8 4.768l-11.477334 50.08a10.666667 10.666667 0 0 1-12.778666 8.010667z" fill="#3DB7D1" /><path d="M440 693.333333c0 36.085333-59.690667 41.333333-133.333333 41.333334s-133.333333-5.248-133.333334-41.333334 59.690667-65.333333 133.333334-65.333333 133.333333 29.248 133.333333 65.333333z" fill="#FB5B5B" /><path d="M280.106667 642.784a427.36 427.36 0 0 1 41.813333-0.778667 16 16 0 0 1-1.173333 31.978667c-8.48-0.309333-23.029333-0.32-38.485334 0.725333-15.701333 1.066667-31.189333 3.136-42.154666 6.56a16 16 0 0 1-9.546667-30.538666c14.634667-4.576 33.141333-6.837333 49.546667-7.946667z" fill="#FFADAD" /></svg>