<?xml version="1.0" standalone="no"?><!DOCTYPE svg PUBLIC "-//W3C//DTD SVG 1.1//EN" "http://www.w3.org/Graphics/SVG/1.1/DTD/svg11.dtd"><svg class="icon" width="200px" height="200.00px" viewBox="0 0 1024 1024" version="1.1" xmlns="http://www.w3.org/2000/svg"><path d="M422.037333 255.210667c-9.738667-8.64-23.434667-14.506667-44.672-13.258667-22.186667 1.301333-37.162667 8.448-47.829333 17.984-11.008 9.834667-19.146667 23.786667-24.565333 41.002667-11.050667 35.114667-9.056 78.250667-3.221334 107.413333a27.584 27.584 0 0 1-54.08 10.816c-6.922667-34.56-10.112-87.808 4.693334-134.794667 7.498667-23.84 20.053333-47.381333 40.426666-65.578666 20.704-18.506667 47.797333-29.941333 81.333334-31.914667 34.464-2.026667 62.848 7.861333 84.490666 27.04 20.938667 18.549333 33.386667 43.84 40.714667 69.248 14.528 50.410667 11.381333 109.92 4.629333 148.938667a27.584 27.584 0 1 1-54.357333-9.386667c6.005333-34.709333 8.042667-84.970667-3.274667-124.266667-5.610667-19.445333-13.845333-33.994667-24.288-43.242666z" fill="#9D6B1F" /><path d="M319.274667 234.986667c-18.912 13.802667-30.368 32.768-35.008 45.653333a9.194667 9.194667 0 1 1-17.290667-6.229333c5.696-15.84 19.189333-38.016 41.461333-54.272 22.602667-16.48 53.952-26.634667 94.314667-18.272a9.194667 9.194667 0 1 1-3.733333 18.005333c-35.029333-7.253333-61.130667 1.546667-79.744 15.125333z" fill="#B67E2A" /><path d="M346.901333 211.082667a9.194667 9.194667 0 0 1-5.525333 11.765333c-6.048 2.186667-21.930667 9.792-34.090667 21.525333a9.194667 9.194667 0 1 1-12.768-13.226666c14.506667-14.005333 32.864-22.794667 40.608-25.6a9.194667 9.194667 0 0 1 11.776 5.536z" fill="#D69B43" /><path d="M150.218667 433.568a73.546667 73.546667 0 0 1 73.130666-65.685333h310.250667a73.546667 73.546667 0 0 1 73.130667 65.685333l38.794666 360.832c4.682667 43.477333-29.386667 81.408-73.12 81.408H184.533333c-43.733333 0-77.802667-37.930667-73.12-81.408l38.794667-360.832z" fill="#E7401B" /><path d="M223.349333 349.493333h310.250667a91.946667 91.946667 0 0 1 91.413333 82.112l38.794667 360.821334c5.845333 54.357333-36.746667 101.76-91.413333 101.76h-387.84c-54.666667 0-97.258667-47.402667-91.413334-101.76l38.794667-360.821334a91.936 91.936 0 0 1 91.413333-82.112z m0 18.389334a73.546667 73.546667 0 0 0-73.130666 65.685333l-38.794667 360.832c-4.682667 43.477333 29.386667 81.408 73.12 81.408h387.861333c43.733333 0 77.802667-37.930667 73.12-81.408l-38.794666-360.832a73.546667 73.546667 0 0 0-73.130667-65.685333H223.36z" fill="#972309" /><path d="M115.989333 828.938667a73.557333 73.557333 0 0 0 68.565334 46.869333h387.84c43.733333 0 77.813333-37.930667 73.130666-81.408l-38.794666-360.832a73.546667 73.546667 0 0 0-69.312-65.589333l39.061333 381.941333c4.458667 43.509333-29.813333 81.258667-73.546667 81.034667l-386.944-2.016z" fill="#BB2B0C" /><path d="M162.698667 557.194667l9.568-112.693334a55.157333 55.157333 0 0 1 50.56-50.325333l75.946666-6.08a9.194667 9.194667 0 0 1 7.925334 14.890667L179.072 563.690667c-5.653333 7.125333-17.130667 2.570667-16.362667-6.506667z" fill="#FA522D" /><path d="M222.645333 408.48A9.194667 9.194667 0 0 1 220.8 421.333333c-6.186667 4.650667-23.893333 24.362667-23.893333 62.186667a9.194667 9.194667 0 1 1-18.389334 0c0-43.786667 20.586667-68.885333 31.253334-76.896a9.194667 9.194667 0 0 1 12.874666 1.845333z" fill="#FF7C5F" /><path d="M611.402667 654.549333a7.328 7.328 0 1 1-14.666667 0 7.328 7.328 0 0 1 14.666667 0zM603.882667 844.874667a7.328 7.328 0 1 1-14.666667 0 7.328 7.328 0 0 1 14.666667 0zM616.352 730.474667a9.898667 9.898667 0 1 1-19.797333 0 9.898667 9.898667 0 0 1 19.797333 0zM611.402667 698.304a7.424 7.424 0 1 1-14.848 0 7.424 7.424 0 0 1 14.848 0zM625.44 774.848a15.402667 15.402667 0 1 1-30.794667 0 15.402667 15.402667 0 0 1 30.794667 0zM585.322667 751.370667a8.074667 8.074667 0 1 1-16.149334 0 8.074667 8.074667 0 0 1 16.149334 0zM619.946667 813.162667a9.898667 9.898667 0 1 1-19.808 0 9.898667 9.898667 0 0 1 19.808 0zM585.322667 817.056a6.005333 6.005333 0 1 1-12.010667 0 6.005333 6.005333 0 0 1 12.010667 0zM496.085333 853.354667a6.005333 6.005333 0 1 1-12.010666 0 6.005333 6.005333 0 0 1 12.010666 0zM545.493333 823.061333a6.005333 6.005333 0 1 1-12.010666 0 6.005333 6.005333 0 0 1 12.010666 0zM569.173333 847.36a9.898667 9.898667 0 1 1-19.797333-0.010667 9.898667 9.898667 0 0 1 19.797333 0zM571.989333 790.24a9.898667 9.898667 0 1 1-19.797333 0 9.898667 9.898667 0 0 1 19.797333 0zM530.154667 844.778667a7.424 7.424 0 1 1-14.848 0 7.424 7.424 0 0 1 14.848 0z" fill="#087332" /><path d="M654.538667 177.098667c-11.306667-10.005333-27.178667-16.832-51.829334-15.381334-25.728 1.514667-43.114667 9.813333-55.488 20.874667-12.778667 11.413333-22.208 27.584-28.501333 47.573333-12.832 40.736-10.506667 90.784-3.733333 124.618667a32 32 0 1 1-62.762667 12.554667c-8.021333-40.106667-11.712-101.888 5.450667-156.405334 8.704-27.648 23.274667-54.965333 46.901333-76.074666 24.032-21.472 55.466667-34.741333 94.378667-37.034667 39.978667-2.346667 72.917333 9.130667 98.026666 31.370667 24.288 21.525333 38.730667 50.858667 47.232 80.352 16.853333 58.485333 13.205333 127.530667 5.376 172.8a32 32 0 0 1-63.061333-10.890667c6.954667-40.266667 9.333333-98.592-3.808-144.181333-6.506667-22.549333-16.053333-39.434667-28.181333-50.176z" fill="#C4850D" /><path d="M535.317333 153.653333c-21.941333 16-35.232 38.016-40.618666 52.96a10.666667 10.666667 0 0 1-20.064-7.232c6.613333-18.378667 22.261333-44.106667 48.106666-62.965333 26.218667-19.125333 62.602667-30.901333 109.429334-21.194667a10.666667 10.666667 0 1 1-4.341334 20.885334c-40.64-8.426667-70.922667 1.792-92.512 17.546666z" fill="#E1A736" /><path d="M567.36 125.898667a10.666667 10.666667 0 0 1-6.4 13.653333c-7.018667 2.538667-25.450667 11.370667-39.552 24.981333a10.666667 10.666667 0 0 1-14.826667-15.349333c16.853333-16.256 38.144-26.453333 47.125334-29.696a10.666667 10.666667 0 0 1 13.653333 6.410667z" fill="#F8DBA4" /><path d="M339.168 384.042667a85.333333 85.333333 0 0 1 84.842667-76.213334H784a85.333333 85.333333 0 0 1 84.842667 76.213334l45.013333 418.645333c5.418667 50.453333-34.112 94.453333-84.842667 94.453333H378.986667c-50.730667 0-90.261333-44.010667-84.842667-94.453333l45.013333-418.645333z" fill="#179C4C" /><path d="M424.021333 286.506667h359.968a106.666667 106.666667 0 0 1 106.048 95.253333l45.013334 418.645333c6.784 63.061333-42.624 118.069333-106.048 118.069334H378.986667c-63.424 0-112.832-55.008-106.048-118.08l45.013333-418.634667a106.666667 106.666667 0 0 1 106.048-95.253333z m0 21.333333a85.333333 85.333333 0 0 0-84.853333 76.202667l-45.013333 418.645333c-5.418667 50.453333 34.112 94.453333 84.842666 94.453333H829.013333c50.730667 0 90.261333-44.010667 84.842667-94.453333l-45.013333-418.645333a85.333333 85.333333 0 0 0-84.842667-76.213334H424.021333z" fill="#07632C" /><path d="M299.445333 842.773333a85.344 85.344 0 0 0 79.552 54.368H829.013333c50.741333 0 90.261333-44.010667 84.842667-94.453333l-45.013333-418.645333a85.333333 85.333333 0 0 0-80.426667-76.096l45.333333 443.136c5.162667 50.474667-34.602667 94.282667-85.333333 94.016l-448.96-2.325334z" fill="#168A44" /><path d="M353.653333 527.466667l11.093334-130.741334a64 64 0 0 1 58.666666-58.389333l88.106667-7.04c9.301333-0.746667 15.008 9.952 9.205333 17.258667l-148.096 186.453333c-6.56 8.277333-19.872 2.986667-18.976-7.530667z" fill="#30B766" /><path d="M423.2 354.933333a10.666667 10.666667 0 0 1-2.133333 14.933334c-7.178667 5.386667-27.733333 28.266667-27.733334 72.128a10.666667 10.666667 0 1 1-21.333333 0c0-50.794667 23.893333-79.914667 36.266667-89.194667a10.666667 10.666667 0 0 1 14.933333 2.133333z" fill="#48F08B" /><path d="M874.24 640.426667a8.512 8.512 0 1 1-17.002667 0 8.512 8.512 0 0 1 17.013334 0zM865.525333 861.248a8.512 8.512 0 1 1-17.013333 0 8.512 8.512 0 0 1 17.013333 0zM880 728.533333a11.488 11.488 0 1 1-22.976 0 11.488 11.488 0 0 1 22.965333 0zM874.24 691.2a8.618667 8.618667 0 1 1-17.216 0 8.618667 8.618667 0 0 1 17.226667 0zM890.538667 780a17.866667 17.866667 0 1 1-35.733334 0 17.866667 17.866667 0 0 1 35.733334 0zM843.989333 752.768a9.365333 9.365333 0 1 1-18.730666 0 9.365333 9.365333 0 0 1 18.730666 0zM884.16 824.458667a11.488 11.488 0 1 1-22.976 0 11.488 11.488 0 0 1 22.976 0zM843.989333 828.970667a6.965333 6.965333 0 1 1-13.930666 0 6.965333 6.965333 0 0 1 13.930666 0zM740.448 871.093333a6.965333 6.965333 0 1 1-13.930667 0 6.965333 6.965333 0 0 1 13.930667 0zM797.781333 835.946667a6.965333 6.965333 0 1 1-13.930666 0 6.965333 6.965333 0 0 1 13.930666 0zM825.258667 864.117333a11.488 11.488 0 1 1-22.976 0 11.488 11.488 0 0 1 22.976 0zM828.522667 797.866667a11.488 11.488 0 1 1-22.976 0 11.488 11.488 0 0 1 22.976 0zM779.978667 861.141333a8.618667 8.618667 0 1 1-17.226667 0 8.618667 8.618667 0 0 1 17.226667 0z" fill="#087332" /><path d="M325.472 640.426667a8.512 8.512 0 1 0 17.013333 0 8.512 8.512 0 0 0-17.013333 0zM334.186667 861.248a8.512 8.512 0 1 0 17.024 0 8.512 8.512 0 0 0-17.013334 0zM319.733333 728.533333a11.488 11.488 0 1 0 22.965334 0 11.488 11.488 0 0 0-22.965334 0zM325.472 691.2a8.618667 8.618667 0 1 0 17.226667 0 8.618667 8.618667 0 0 0-17.226667 0zM309.184 780a17.866667 17.866667 0 1 0 35.733333 0 17.866667 17.866667 0 0 0-35.733333 0zM355.733333 752.768a9.365333 9.365333 0 1 0 18.730667 0 9.365333 9.365333 0 0 0-18.741333 0zM315.562667 824.458667a11.488 11.488 0 1 0 22.976 0 11.488 11.488 0 0 0-22.976 0zM355.733333 828.970667a6.965333 6.965333 0 1 0 13.930667 0 6.965333 6.965333 0 0 0-13.941333 0zM459.264 871.093333a6.965333 6.965333 0 1 0 13.941333 0 6.965333 6.965333 0 0 0-13.930666 0zM401.930667 835.946667a6.965333 6.965333 0 1 0 13.941333 0 6.965333 6.965333 0 0 0-13.930667 0zM374.464 864.117333a11.488 11.488 0 1 0 22.976 0 11.488 11.488 0 0 0-22.976 0zM371.2 797.866667a11.488 11.488 0 1 0 22.976 0 11.488 11.488 0 0 0-22.976 0zM419.733333 861.141333a8.618667 8.618667 0 1 0 17.237334 0 8.618667 8.618667 0 0 0-17.237334 0z" fill="#1FBC5E" /><path d="M610.357333 638.208a34.357333 34.357333 0 1 0 0-68.725333 34.357333 34.357333 0 0 0 0 68.725333z m0 21.333333a55.690667 55.690667 0 1 0 0-111.392 55.690667 55.690667 0 0 0 0 111.392z" fill="#F6C74E" /><path d="M752.96 686.250667a10.666667 10.666667 0 0 1-14.581333 3.893333L467.136 533.290667a10.666667 10.666667 0 1 1 10.677333-18.464l271.253334 156.853333a10.666667 10.666667 0 0 1 3.893333 14.570667zM603.072 702.912a10.666667 10.666667 0 0 1 11.093333 0.085333l48.906667 30.336a10.666667 10.666667 0 0 1-11.242667 18.133334l-43.381333-26.912-40.608 24.277333a10.666667 10.666667 0 1 1-10.944-18.304l46.186667-27.626667zM457.28 627.146667a10.666667 10.666667 0 0 1 14.314667-4.768l48.906666 24.448a10.666667 10.666667 0 0 1 5.898667 9.546666v57.952a10.666667 10.666667 0 0 1-21.333333 0v-51.36l-43.008-21.504a10.666667 10.666667 0 0 1-4.768-14.314666z" fill="#F6C74E" /><path d="M519.168 486.794667a10.666667 10.666667 0 0 1 9.92 11.370666l-3.626667 52.981334a10.666667 10.666667 0 0 1-4.906666 8.266666l-44.832 28.533334a10.666667 10.666667 0 0 1-11.456-18.005334l40.277333-25.632 3.264-47.594666a10.666667 10.666667 0 0 1 11.370667-9.92zM551.637333 465.770667a10.666667 10.666667 0 0 1 14.773334-3.050667l41.952 27.562667 40.448-24.181334a10.666667 10.666667 0 1 1 10.944 18.304l-46.186667 27.626667a10.666667 10.666667 0 0 1-11.328-0.245333l-47.541333-31.242667a10.666667 10.666667 0 0 1-3.061334-14.773333zM703.189333 486.773333a10.666667 10.666667 0 0 1 10.666667 10.666667v44.330667l39.338667 24.490666a10.666667 10.666667 0 1 1-11.274667 18.112l-44.373333-27.626666a10.666667 10.666667 0 0 1-5.024-9.045334v-50.261333a10.666667 10.666667 0 0 1 10.666666-10.666667zM761.866667 628.576a10.666667 10.666667 0 0 1-5.525334 14.026667l-45.386666 19.733333 1.984 52.032a10.666667 10.666667 0 0 1-21.322667 0.821333l-2.261333-59.317333a10.666667 10.666667 0 0 1 6.4-10.186667l52.074666-22.645333a10.666667 10.666667 0 0 1 14.037334 5.536z" fill="#F6C74E" /><path d="M752.16 517.365333a10.666667 10.666667 0 0 1-3.754667 14.613334l-269.76 159.392a10.666667 10.666667 0 1 1-10.848-18.368l269.76-159.392a10.666667 10.666667 0 0 1 14.613334 3.754666z" fill="#F6C74E" /><path d="M608.106667 435.157333a10.666667 10.666667 0 0 1 10.666666 10.666667V759.146667a10.666667 10.666667 0 0 1-21.333333 0V445.824a10.666667 10.666667 0 0 1 10.666667-10.666667z" fill="#F6C74E" /></svg>