<?xml version="1.0" standalone="no"?><!DOCTYPE svg PUBLIC "-//W3C//DTD SVG 1.1//EN" "http://www.w3.org/Graphics/SVG/1.1/DTD/svg11.dtd"><svg class="icon" width="200px" height="200.00px" viewBox="0 0 1024 1024" version="1.1" xmlns="http://www.w3.org/2000/svg"><path d="M184.725333 272.373333a21.333333 21.333333 0 0 1 25.6 15.957334c29.002667 125.152 29.152 197.28 14.090667 254.432-7.456 28.32-18.432 52.085333-30.037333 75.552-2.090667 4.224-4.192 8.426667-6.314667 12.661333-9.738667 19.466667-19.669333 39.306667-29.194667 63.178667-22.4 56.117333-20.384 102.656-4.949333 134.912 15.210667 31.765333 44.650667 52.448 84.170667 55.914666 32.32 2.826667 61.226667-13.194667 85.024-37.952 23.850667-24.810667 39.861333-55.754667 45.824-75.445333a21.333333 21.333333 0 0 1 40.832 12.362667c-7.850667 25.952-27.232 62.837333-55.893334 92.650666-28.725333 29.877333-69.482667 55.264-119.509333 50.88-53.696-4.693333-96.853333-33.866667-118.933333-79.989333-21.845333-45.632-21.802667-105.002667 3.808-169.152 10.250667-25.696 21.109333-47.370667 30.890666-66.912l5.994667-12.021333c11.317333-22.88 20.704-43.509333 27.029333-67.52 12.522667-47.509333 13.909333-111.786667-14.4-233.92a21.333333 21.333333 0 0 1 15.968-25.6z" fill="#935F10" /><path d="M187.136 282.762667a10.666667 10.666667 0 0 1 12.8 7.978666c28.821333 124.394667 28.586667 194.56 14.165333 249.301334-7.168 27.242667-17.749333 50.229333-29.290666 73.546666-2.048 4.149333-4.128 8.298667-6.229334 12.490667-9.749333 19.488-19.914667 39.786667-29.621333 64.117333a10.666667 10.666667 0 1 1-19.818667-7.904c10.08-25.237333 20.693333-46.464 30.474667-65.984 2.069333-4.128 4.096-8.181333 6.08-12.181333 11.381333-23.018667 21.173333-44.437333 27.776-69.514667 13.152-49.92 14.154667-116.170667-14.325333-239.050666a10.666667 10.666667 0 0 1 7.989333-12.8z" fill="#BD8023" /><path d="M212.202667 432.736a10.666667 10.666667 0 0 1 11.093333 10.218667c0.906667 22.325333 0.106667 41.930667-2.058667 59.669333a10.666667 10.666667 0 1 1-21.173333-2.581333c2.016-16.469333 2.773333-34.912 1.92-56.213334a10.666667 10.666667 0 0 1 10.218667-11.093333z" fill="#E49B2D" /><path d="M589.866667 241.728a42.666667 42.666667 0 0 1 59.221333-11.573333l157.376 105.92a42.666667 42.666667 0 0 1 11.573333 59.221333l-304.170666 451.946667c-5.493333 8.170667-13.653333 14.229333-23.424 15.402666-25.450667 3.04-80.192 2.496-138.442667-42.645333-63.328-49.066667-73.728-88.512-74.986667-105.141333-0.426667-5.642667 1.813333-10.965333 4.970667-15.648L589.866667 241.728z" fill="#1D7F05" /><path d="M661.002667 212.458667l157.376 105.92a64 64 0 0 1 17.354666 88.821333l-304.170666 451.946667c-8.074667 12-21.226667 22.613333-38.581334 24.682666-29.397333 3.52-90.218667 2.506667-154.048-46.965333-67.061333-51.978667-81.386667-96.565333-83.189333-120.405333-0.928-12.352 4.042667-22.474667 8.533333-29.162667l307.893334-457.472a64 64 0 0 1 88.832-17.365333z m-11.914667 17.706666a42.666667 42.666667 0 0 0-59.221333 11.562667L281.984 699.210667c-3.157333 4.693333-5.386667 10.005333-4.96 15.648 1.248 16.64 11.648 56.064 74.976 105.141333 58.250667 45.152 112.992 45.685333 138.453333 42.645333 9.770667-1.173333 17.92-7.232 23.413334-15.402666l304.170666-451.946667a42.666667 42.666667 0 0 0-11.573333-59.221333l-157.376-105.92z" fill="#154909" /><path d="M306.965333 777.418667c10.773333 12.992 25.344 27.317333 45.034667 42.581333 58.250667 45.152 112.992 45.685333 138.453333 42.645333 9.770667-1.173333 17.92-7.232 23.413334-15.402666l304.170666-451.946667a42.666667 42.666667 0 0 0-11.573333-59.221333l-15.445333-10.4a42.602667 42.602667 0 0 1-4.981334 37.621333l-304.170666 451.946667c-5.493333 8.170667-13.653333 14.229333-23.424 15.402666-25.450667 3.04-80.192 2.496-138.442667-42.645333a361.6 361.6 0 0 1-13.034667-10.581333z" fill="#1F630E" /><path d="M584.042667 378.698667a32 32 0 0 1 8.8 44.394666l-224 334.666667a32 32 0 0 1-53.184-35.605333l224-334.666667a32 32 0 0 1 44.384-8.789333z" fill="#39AC1B" /><path d="M402.645333 519.925333l157.141334-233.493333L689.088 257.066667l97.994667 65.962666 12.832 99.2-166.197334 246.933334c-50.24-14.304-102.570667-36.842667-150.016-71.264-33.824-24.544-60.373333-51.189333-81.066666-77.973334z" fill="#154909" /><path d="M439.530667 481.333333a10.666667 10.666667 0 0 1 10.666666 10.666667c0 22.805333 5.706667 67.616 44.277334 105.056 48.896 47.445333 77.728 101.877333 82.368 141.664a10.666667 10.666667 0 1 1-21.194667 2.474667c-3.882667-33.322667-29.312-83.498667-76.032-128.832-44.288-42.986667-50.752-94.432-50.752-120.362667a10.666667 10.666667 0 0 1 10.666667-10.666667zM479.733333 429.056a10.666667 10.666667 0 0 1 10.666667 10.666667c0 22.805333 5.717333 67.616 44.288 105.056 48.885333 47.445333 77.717333 101.866667 82.368 141.653333a10.666667 10.666667 0 1 1-21.194667 2.485333c-3.882667-33.322667-29.322667-83.498667-76.032-128.832-44.288-42.986667-50.762667-94.432-50.762666-120.362666a10.666667 10.666667 0 0 1 10.666666-10.666667zM519.946667 375.434667a10.666667 10.666667 0 0 1 10.666666 10.666666c0 22.816 5.706667 67.626667 44.277334 105.066667 48.896 47.445333 77.728 101.866667 82.368 141.653333a10.666667 10.666667 0 0 1-21.184 2.485334c-3.893333-33.322667-29.333333-83.498667-76.032-128.842667-44.288-42.986667-50.773333-94.432-50.773334-120.362667a10.666667 10.666667 0 0 1 10.666667-10.666666zM400.533333 540.426667a10.666667 10.666667 0 0 1 10.666667 10.666666c0 22.805333 5.717333 67.626667 44.288 105.056 48.885333 47.456 77.717333 101.877333 82.357333 141.664a10.666667 10.666667 0 1 1-21.184 2.474667c-3.882667-33.322667-29.322667-83.488-76.032-128.832-44.288-42.986667-50.762667-94.432-50.762666-120.362667a10.666667 10.666667 0 0 1 10.666666-10.666666zM355.370667 594.037333a10.666667 10.666667 0 0 1 10.666666 10.666667c0 22.805333 5.717333 67.626667 44.288 105.066667 48.896 47.445333 77.728 101.866667 82.368 141.653333a10.666667 10.666667 0 1 1-21.194666 2.474667c-3.882667-33.312-29.322667-83.488-76.032-128.832-44.288-42.986667-50.762667-94.432-50.762667-120.362667a10.666667 10.666667 0 0 1 10.666667-10.666667zM310.666667 653.386667a10.666667 10.666667 0 0 1 10.666666 10.666666c0 21.962667 8.725333 64.736 47.765334 102.624 27.253333 26.453333 46.741333 50.741333 57.557333 79.573334a10.666667 10.666667 0 0 1-19.978667 7.498666c-9.173333-24.501333-26.058667-46.154667-52.437333-71.765333-43.818667-42.528-54.24-91.146667-54.24-117.930667a10.666667 10.666667 0 0 1 10.666667-10.666666z" fill="#B48204" /><path d="M402.282667 580.021333a10.666667 10.666667 0 0 1 13.034666 7.594667c2.037333 7.765333 6.506667 20.693333 13.098667 33.493333 6.698667 13.024 14.976 24.682667 24.117333 31.210667a10.666667 10.666667 0 0 1-12.394666 17.354667c-13.258667-9.461333-23.434667-24.693333-30.688-38.794667a198.133333 198.133333 0 0 1-14.762667-37.834667 10.666667 10.666667 0 0 1 7.594667-13.024zM358.293333 635.68a10.666667 10.666667 0 0 1 13.013334 7.605333c2.048 7.754667 6.517333 20.693333 13.12 33.493334 6.688 13.013333 14.965333 24.672 24.106666 31.210666A10.666667 10.666667 0 1 1 396.138667 725.333333c-13.258667-9.472-23.434667-24.704-30.688-38.794666a198.122667 198.122667 0 0 1-14.762667-37.834667 10.666667 10.666667 0 0 1 7.594667-13.034667zM314.08 695.893333a10.666667 10.666667 0 0 1 13.493333 6.752c2.528 7.616 7.818667 20.234667 15.210667 32.597334 7.52 12.565333 16.522667 23.658667 26.069333 29.6a10.666667 10.666667 0 0 1-11.274666 18.112c-13.834667-8.597333-24.96-23.146667-33.098667-36.757334a198.272 198.272 0 0 1-17.152-36.810666 10.666667 10.666667 0 0 1 6.752-13.493334zM443.626667 523.733333a10.666667 10.666667 0 0 1 13.013333 7.594667 177.066667 177.066667 0 0 0 13.12 33.493333c6.688 13.013333 14.965333 24.672 24.106667 31.2a10.666667 10.666667 0 0 1-12.394667 17.365334c-13.258667-9.472-23.434667-24.704-30.688-38.794667a198.154667 198.154667 0 0 1-14.762667-37.834667 10.666667 10.666667 0 0 1 7.594667-13.034666zM479.381333 464.426667a10.666667 10.666667 0 0 1 13.034667 7.605333c2.037333 7.765333 6.506667 20.693333 13.098667 33.504 6.698667 13.013333 14.976 24.672 24.106666 31.2a10.666667 10.666667 0 0 1-12.394666 17.365333c-13.248-9.472-23.424-24.704-30.677334-38.805333a198.154667 198.154667 0 0 1-14.762666-37.834667 10.666667 10.666667 0 0 1 7.594666-13.024z" fill="#EFB31C" /><path d="M430.901333 234.24l363.349334-82.517333a42.666667 42.666667 0 0 1 51.765333 36.138666l46.890667 362.613334c3.050667 23.552-13.728 45.013333-37.472 45.013333-77.653333 0-204.298667-18.538667-307.733334-93.589333-103.872-75.370667-139.146667-170.496-146.528-228.896-2.368-18.730667 11.306667-34.592 29.728-38.773334z" fill="#CA3737" /><path d="M426.176 213.429333l363.349333-82.506666a64 64 0 0 1 77.653334 54.197333l46.890666 362.624c4.48 34.72-20.469333 69.077333-58.634666 69.077333-80.149333 0-211.84-18.986667-320.256-97.653333-109.216-79.253333-147.136-179.968-155.168-243.488-4.021333-31.861333 19.392-56.170667 46.165333-62.250667z m368.074667-61.706666l-363.349334 82.506666c-18.410667 4.181333-32.096 20.042667-29.728 38.773334 7.381333 58.4 42.656 153.525333 146.528 228.896 103.434667 75.050667 230.08 93.589333 307.733334 93.589333 23.744 0 40.522667-21.461333 37.472-45.013333l-46.890667-362.613334a42.666667 42.666667 0 0 0-51.765333-36.138666z" fill="#730606" /><path d="M800 592.618667c20.234667 2.026667 38.933333 2.88 55.434667 2.88 23.744 0 40.522667-21.472 37.472-45.013334l-46.890667-362.624a42.453333 42.453333 0 0 0-14.517333-26.901333l-0.085334 1.749333-29.578666 420.170667a42.698667 42.698667 0 0 1-1.824 9.738667z" fill="#B32D2D" /><path d="M445.333333 265.333333l353.333334-86.666666-277.333334 245.333333c-52.266667-37.333333-72.448-121.333333-76-158.666667z" fill="#EC4747" /><path d="M695.093333 228.042667a16 16 0 0 1-9.802666 20.394666L544.64 297.770667a16 16 0 1 1-10.592-30.197334l140.672-49.333333a16 16 0 0 1 20.384 9.802667z" fill="#FF9B9B" /><path d="M447.925333 216.362667a10.666667 10.666667 0 0 1 13.045334 7.562666l0.117333 0.426667c14.613333 54.869333 41.642667 156.48 155.178667 226.570667 110.357333 68.117333 212.458667 72.128 267.146666 69.088a10.666667 10.666667 0 0 1 1.173334 21.312c-57.312 3.178667-164.224-1.066667-279.52-72.245334-120.768-74.549333-149.674667-183.157333-164.490667-238.858666l-0.213333-0.810667a10.666667 10.666667 0 0 1 7.562666-13.045333z" fill="#F6D04D" /><path d="M524.512 204.757333a10.666667 10.666667 0 0 1 13.056 7.573334l0.074667 0.288c11.456 43.061333 32.522667 122.208 121.024 176.842666 86.24 53.226667 166.005333 56.362667 208.725333 53.984a10.666667 10.666667 0 1 1 1.173333 21.301334c-45.333333 2.517333-129.92-0.853333-221.109333-57.130667-95.733333-59.093333-118.656-145.248-130.325333-189.130667l-0.181334-0.672a10.666667 10.666667 0 0 1 7.562667-13.056z" fill="#F6D04D" /><path d="M616.341333 186.090667a10.666667 10.666667 0 0 1 13.045334 7.573333l0.042666 0.16c8.341333 31.338667 23.477333 88.213333 87.146667 127.52 62.336 38.485333 119.957333 40.736 150.816 39.018667a10.666667 10.666667 0 1 1 1.173333 21.301333c-33.472 1.866667-95.904-0.64-163.189333-42.165333-70.901333-43.765333-87.893333-107.637333-96.458667-139.818667l-0.149333-0.533333a10.666667 10.666667 0 0 1 7.573333-13.056z" fill="#F6D04D" /><path d="M694.869333 168.362667a10.666667 10.666667 0 0 1 13.056 7.562666v0.021334c5.248 19.68 14.474667 54.346667 53.408 78.378666 38.496 23.776 74.048 25.152 93.066667 24.096a10.666667 10.666667 0 0 1 1.184 21.301334c-21.653333 1.205333-62.016-0.426667-105.461333-27.242667-46.165333-28.490667-57.248-70.165333-62.709334-90.666667l-0.106666-0.405333a10.666667 10.666667 0 0 1 7.573333-13.045333zM768.853333 158.165333a10.666667 10.666667 0 0 1 13.045334 7.562667c2.154667 8.085333 5.546667 20.565333 19.765333 29.344a60.608 60.608 0 0 0 35.605333 9.237333 10.666667 10.666667 0 1 1 1.173334 21.301334 81.941333 81.941333 0 0 1-47.978667-12.373334c-21.546667-13.301333-26.741333-32.874667-29.109333-41.770666l-0.064-0.256a10.666667 10.666667 0 0 1 7.562666-13.045334z" fill="#F6D04D" /></svg>