<?xml version="1.0" standalone="no"?><!DOCTYPE svg PUBLIC "-//W3C//DTD SVG 1.1//EN" "http://www.w3.org/Graphics/SVG/1.1/DTD/svg11.dtd"><svg class="icon" width="200px" height="200.00px" viewBox="0 0 1024 1024" version="1.1" xmlns="http://www.w3.org/2000/svg"><path d="M745.386667 271.050667c48.778667 0 60.970667 67.136 60.970666 100.693333 0 33.578667-19.221333 80.821333 25.109334 82.72 46.08 1.984 53.248-80.469333 53.248-105.898667 0-26.794667 0-129.472-107.605334-161.834666-91.370667-27.488-146.389333 25.536-171.626666 91.52L483.530667 609.109333c-5.973333 13.184-10.048 43.157333 21.514666 57.546667 31.573333 14.378667 49.664-5.205333 57.386667-25.173333L648.533333 389.738667c11.946667-39.573333 48.064-118.688 96.853334-118.688z" fill="#24E287" /><path d="M668.842667 396.266667l-86.357334 252.522666-0.149333 0.394667c-4.821333 12.458667-13.706667 27.178667-28.768 36.117333-16.341333 9.685333-36.245333 10.389333-57.365333 0.768-22.122667-10.08-33.418667-26.901333-36.906667-44.458666-3.157333-15.818667 0.213333-30.794667 4.448-40.522667l121.770667-330.346667 0.042666-0.106666c13.653333-35.722667 36.085333-69.888 69.461334-91.178667 34.133333-21.770667 77.28-28.48 128.234666-13.162667 60.832 18.304 92.245333 57.237333 107.776 95.402667 15.018667 36.938667 15.018667 72.693333 15.018667 86.570667v0.298666c0 13.898667-1.877333 43.306667-10.368 69.749334-4.224 13.173333-10.624 27.349333-20.693333 38.389333-10.613333 11.648-25.514667 19.893333-44.437334 19.082667-14.954667-0.64-28.533333-5.397333-37.973333-16.522667-8.896-10.474667-11.136-23.232-11.594667-33.312-0.458667-10.176 0.810667-21.013333 1.888-29.941333l0.181334-1.504c1.088-9.002667 1.973333-16.309333 1.973333-22.752 0-14.933333-2.805333-36.96-10.421333-54.410667-7.616-17.493333-17.173333-24.96-29.226667-24.96-12.768 0-28.416 11.104-44.522667 35.072-15.125333 22.506667-26.346667 50.101333-31.893333 68.448l-0.117333 0.373333zM483.52 609.12l121.952-330.858667c25.237333-65.984 80.256-119.008 171.626667-91.52 107.605333 32.362667 107.605333 135.04 107.605333 161.834667 0 25.429333-7.168 107.882667-53.248 105.898667-34.026667-1.461333-30.613333-29.653333-27.178667-57.845334 1.034667-8.533333 2.069333-17.066667 2.069334-24.864 0-33.568-12.192-100.693333-60.981334-100.693333-48.778667 0-84.885333 79.114667-96.853333 118.677333l-86.08 251.733334c-7.733333 19.978667-25.824 39.573333-57.386667 25.173333-31.573333-14.378667-27.509333-44.341333-21.525333-57.536z" fill="#16824E" /><path d="M778.4 203.050667a10.666667 10.666667 0 0 1 14.208-5.088c51.413333 24.266667 74.218667 68.234667 81.888 112.106666 7.605333 43.52 0.554667 87.765333-8.288 115.445334a10.666667 10.666667 0 0 1-20.32-6.485334c8.053333-25.216 14.474667-65.909333 7.584-105.28-6.826667-39.050667-26.464-75.968-69.973333-96.501333a10.666667 10.666667 0 0 1-5.098667-14.186667z" fill="#19CB75" /><path d="M684.618667 206.186667a10.666667 10.666667 0 0 1-9.162667 11.989333c-0.842667 0.106667-3.242667 1.024-7.178667 4.469333-3.68 3.210667-7.690667 7.744-11.733333 13.056-7.904 10.378667-15.104 22.613333-19.381333 30.890667l-133.12 358.069333a10.666667 10.666667 0 0 1-19.989334-7.434666l133.333334-358.666667c0.149333-0.394667 0.32-0.778667 0.501333-1.152a247.690667 247.690667 0 0 1 21.674667-34.634667c4.512-5.92 9.493333-11.669333 14.677333-16.192 4.928-4.309333 11.242667-8.597333 18.4-9.546666a10.666667 10.666667 0 0 1 11.978667 9.162666z" fill="#59F4AA" /><path d="M764.8 241.824c12.277333 2.058667 23.968 7.178667 31.498667 16.352a10.666667 10.666667 0 0 1-16.490667 13.525333c-3.146667-3.829333-9.28-7.285333-18.538667-8.832-9.077333-1.525333-20.149333-0.992-31.594666 2.112-22.869333 6.208-45.866667 22.24-57.066667 49.952l-0.021333 0.042667-31.328 76.661333a10.666667 10.666667 0 1 1-19.744-8.064l31.317333-76.629333v-0.021333c14.133333-34.944 43.125333-54.901333 71.253333-62.528 14.058667-3.808 28.245333-4.650667 40.704-2.570667z" fill="#19CB75" /><path d="M843.904 413.152a85.397333 85.397333 0 0 0-27.754667 8 10.666667 10.666667 0 0 1-9.536-19.093333 106.656 106.656 0 0 1 35.178667-10.133334c13.866667-1.386667 30.56 0.341333 43.349333 11.701334a10.666667 10.666667 0 1 1-14.186666 15.946666c-6.4-5.696-15.936-7.530667-27.050667-6.421333zM843.882667 350.986667c-13.738667 2.346667-25.738667 6.304-32.330667 9.109333a10.666667 10.666667 0 0 1-8.330667-19.637333c8.074667-3.434667 21.664-7.872 37.066667-10.496 15.296-2.613333 33.322667-3.616 49.770667 0.650666a10.666667 10.666667 0 1 1-5.354667 20.650667c-12.341333-3.2-26.986667-2.634667-40.821333-0.277333zM868.512 241.514667a10.666667 10.666667 0 0 1-8.373333 12.554666c-11.84 2.368-24.490667 10.56-35.989334 21.034667-11.306667 10.314667-20.416 21.824-25.205333 29.056a10.666667 10.666667 0 1 1-17.792-11.776c5.653333-8.544 15.893333-21.44 28.629333-33.045333 12.565333-11.445333 28.693333-22.698667 46.186667-26.186667a10.666667 10.666667 0 0 1 12.544 8.362667zM789.781333 182.645333a10.666667 10.666667 0 0 1-3.434666 14.688c-0.928 0.576-3.2 3.018667-5.877334 9.301334-2.485333 5.813333-4.693333 13.365333-6.549333 21.792-3.733333 16.810667-5.802667 35.669333-6.56 47.84a10.666667 10.666667 0 1 1-21.290667-1.322667c0.8-12.938667 2.986667-32.949333 7.018667-51.125333 2.005333-9.066667 4.544-18.048 7.765333-25.578667 3.018667-7.061333 7.434667-14.805333 14.24-19.029333a10.666667 10.666667 0 0 1 14.688 3.434666zM660.021333 192.501333a10.666667 10.666667 0 0 1 14.474667-4.266666c6.613333 3.626667 12.469333 10.346667 17.354667 17.205333 5.098667 7.146667 10.069333 15.786667 14.613333 24.64a451.84 451.84 0 0 1 21.621333 49.92 10.666667 10.666667 0 0 1-20.074666 7.221333 430.933333 430.933333 0 0 0-20.512-47.381333c-4.298667-8.373333-8.746667-16.010667-13.013334-22.026667-4.512-6.314667-8.032-9.653333-10.208-10.848a10.666667 10.666667 0 0 1-4.266666-14.464zM594.101333 267.093333a10.666667 10.666667 0 0 1 13.792-6.101333c10.186667 3.936 26.208 11.050667 41.557334 19.776 14.912 8.469333 30.912 19.392 39.328 31.370667a10.666667 10.666667 0 1 1-17.450667 12.266666c-5.450667-7.754667-17.674667-16.714667-32.416-25.088a311.008 311.008 0 0 0-38.709333-18.432 10.666667 10.666667 0 0 1-6.101334-13.792zM567.072 352.874667a10.666667 10.666667 0 0 1 13.045333-7.573334c9.578667 2.528 24.725333 7.232 39.338667 13.194667 14.101333 5.738667 29.610667 13.376 38.282667 22.378667a10.666667 10.666667 0 1 1-15.370667 14.794666c-5.205333-5.397333-16.8-11.648-30.954667-17.418666a326.058667 326.058667 0 0 0-36.768-12.330667 10.666667 10.666667 0 0 1-7.573333-13.045333zM536.768 438.592a10.666667 10.666667 0 0 1 11.626667-9.6c14.752 1.397333 51.168 7.882667 80.576 23.146667a10.666667 10.666667 0 1 1-9.834667 18.933333c-26.069333-13.536-59.52-19.584-72.768-20.842667a10.666667 10.666667 0 0 1-9.6-11.626666zM510.165333 504.746667a10.666667 10.666667 0 0 1 12.085334-9.034667c15.722667 2.282667 54.208 10.122667 81.824 23.648a10.666667 10.666667 0 1 1-9.386667 19.157333c-24.64-12.074667-60.554667-19.52-75.498667-21.685333a10.666667 10.666667 0 0 1-9.024-12.085333zM486.133333 573.653333a10.666667 10.666667 0 0 1 11.872-9.301333c8.768 1.066667 23.178667 3.669333 38.613334 8.085333 15.317333 4.373333 32.373333 10.72 45.930666 19.562667a10.666667 10.666667 0 1 1-11.658666 17.877333c-10.976-7.168-25.706667-12.8-40.138667-16.928a246.421333 246.421333 0 0 0-35.328-7.424 10.666667 10.666667 0 0 1-9.290667-11.872z" fill="#CAFD3A" /><path d="M320.8 366.784c-56.32-2.837333-74.304 73.952-76.266667 112.704-1.952 38.752 17.493333 94.4-33.802666 94.026667-53.301333-0.394667-56.789333-96-55.306667-125.365334 1.557333-30.933333 7.541333-149.461333 133.653333-180.565333C396.16 241.173333 454.72 310.272 481.877333 383.232L603.413333 772.298667c6.133333 15.573333 9.077333 50.410667-28.202666 65.173333-37.28 14.773333-57.024-8.896-64.789334-32.394667L425.696 509.44c-11.498667-46.368-48.576-139.808-104.896-142.656z" fill="#F33624" /><path d="M405.088 514.944l84.938667 296.426667 0.138666 0.394666c4.714667 14.272 13.770667 31.018667 29.792 41.642667 17.258667 11.445333 39.018667 13.450667 63.114667 3.904 25.109333-9.952 38.4-27.850667 43.2-46.901333 4.373333-17.322667 1.450667-34.144-2.709333-45.12L502.08 376.32l-0.192-0.533333c-14.421333-38.72-37.834667-78.410667-73.792-104.842667-36.821333-27.061333-84.8-38.72-144.106667-24.085333-70.186667 17.312-107.978667 59.658667-127.765333 102.037333-19.221333 41.173333-21.28 81.92-22.08 97.866667l-0.010667 0.298666c-0.8 15.861333-0.330667 49.536 7.786667 80.106667 4.053333 15.242667 10.464 31.456 21.013333 44.266667 11.072 13.450667 26.922667 23.253333 47.648 23.402666 16.704 0.128 31.637333-4.394667 42.346667-15.808 10.154667-10.794667 13.365333-24.533333 14.453333-35.829333 1.098667-11.392 0.277333-23.722667-0.448-34.122667l-0.128-1.845333c-0.725333-10.346667-1.333333-19.029333-0.96-26.677333 0.896-17.525333 5.482667-43.285333 15.552-63.530667 10.08-20.266667 22.506667-29.738667 38.336-28.938667 16.554667 0.832 34.773333 15.957333 52.053334 44.693334 16.362667 27.210667 27.818667 60.053333 33.216 81.781333l0.085333 0.373333zM603.413333 772.298667L481.877333 383.232c-27.157333-72.96-85.717333-142.058667-192.8-115.648-126.112 31.104-132.085333 149.642667-133.653333 180.565333-1.482667 29.354667 2.005333 124.970667 55.306667 125.365334 39.381333 0.288 37.066667-32.448 34.752-65.205334-0.704-9.92-1.397333-19.829333-0.949334-28.821333 1.962667-38.752 19.946667-115.541333 76.266667-112.704 56.32 2.848 93.397333 96.288 104.896 142.645333l84.725333 295.648c7.765333 23.498667 27.52 47.168 64.789334 32.405334 37.28-14.773333 34.336-49.6 28.202666-65.173334z" fill="#8B150A" /><path d="M369.429333 295.616c22.581333 14.016 38.005333 34.453333 47.978667 48.469333a10.666667 10.666667 0 1 1-17.386667 12.373334c-9.792-13.76-23.146667-31.114667-41.845333-42.72-18.186667-11.296-41.930667-17.450667-73.728-7.914667-48.128 14.442667-69.504 60.256-73.962667 81.322667a10.666667 10.666667 0 0 1-20.874666-4.416c5.333333-25.141333 30.176-79.786667 88.704-97.333334 37.994667-11.402667 68.032-4.117333 91.114666 10.218667z" fill="#FF867B" /><path d="M312.181333 295.146667c-13.333333-0.192-25.504 1.888-32.32 3.744a10.666667 10.666667 0 1 1-5.621333-20.576c8.64-2.357333 22.794667-4.714667 38.261333-4.48 15.36 0.213333 33.12 3.008 48.032 11.957333a10.666667 10.666667 0 0 1-10.965333 18.293333c-10.421333-6.24-23.936-8.736-37.386667-8.928z" fill="#FFF5F4" /><path d="M369.706667 361.088c19.168 17.504 31.616 41.472 37.6 56.597333a10.666667 10.666667 0 0 1-19.84 7.84c-5.354667-13.546667-16.298667-34.208-32.149334-48.693333-15.402667-14.069333-34.613333-21.76-58.816-12.586667-27.221333 10.314667-42.144 33.888-49.354666 62.474667-7.242667 28.672-6.197333 60.8-2.56 84.608a10.666667 10.666667 0 1 1-21.077334 3.232c-3.914667-25.536-5.205333-60.736 2.944-93.066667 8.181333-32.416 26.357333-63.509333 62.485334-77.194666 33.706667-12.768 61.152-1.12 80.768 16.789333zM402.901333 294.784a10.666667 10.666667 0 0 1 14.634667-3.658667c6.133333 3.68 12.32 9.685333 18.101333 16.501334 5.909333 6.944 11.914667 15.349333 17.610667 24.426666 11.370667 18.101333 21.952 39.594667 28.266667 58.901334l0.032 0.085333 57.322666 179.968 0.010667 0.032 69.994667 217.301333a10.666667 10.666667 0 1 1-20.309334 6.538667l-70.005333-217.333333v-0.032L461.226667 397.546667c-5.685333-17.344-15.434667-37.226667-26.058667-54.154667a192.970667 192.970667 0 0 0-15.797333-21.952c-5.216-6.144-9.621333-10.101333-12.821334-12.021333a10.666667 10.666667 0 0 1-3.658666-14.634667z" fill="#BF2112" /><path d="M256.149333 492.16a10.666667 10.666667 0 0 1-6.656 13.546667c-46.357333 15.829333-83.498667 7.008-97.834666-0.704a10.666667 10.666667 0 1 1 10.112-18.784c8.789333 4.725333 39.733333 13.333333 80.832-0.704a10.666667 10.666667 0 0 1 13.546666 6.645333zM156.928 380.992a10.666667 10.666667 0 0 1 15.072-0.512c13.013333 12.16 47.317333 37.802667 80.234667 44.693333a10.666667 10.666667 0 1 1-4.373334 20.874667c-38.538667-8.053333-76.32-36.8-90.421333-49.984a10.666667 10.666667 0 0 1-0.512-15.072zM219.093333 288.245333a10.666667 10.666667 0 0 1 13.653334 6.4c3.701333 10.24 10.933333 26.986667 20.448 43.349334 9.653333 16.629333 20.928 31.573333 32.309333 39.541333a10.666667 10.666667 0 0 1-12.234667 17.472c-15.296-10.698667-28.458667-28.970667-38.528-46.293333a306.538667 306.538667 0 0 1-22.058666-46.826667 10.666667 10.666667 0 0 1 6.410666-13.653333zM319.648 255.168a10.666667 10.666667 0 0 1 5.514667 14.037333c-4.448 10.176-13.408 45.717333-7.189334 96.437334a10.666667 10.666667 0 0 1-21.173333 2.592c-6.592-53.802667 2.581333-93.290667 8.810667-107.562667a10.666667 10.666667 0 0 1 14.037333-5.504zM427.914667 289.248a10.666667 10.666667 0 0 1-8.842667 12.224c-4.736 0.757333-10.346667 3.658667-16.64 9.098667-6.197333 5.365333-12.373333 12.608-18.218667 20.842666-11.68 16.469333-21.184 35.669333-26.282666 48.213334a10.666667 10.666667 0 0 1-19.754667-8.042667c5.557333-13.674667 15.786667-34.410667 28.64-52.512 6.432-9.066667 13.717333-17.770667 21.653333-24.64 7.850667-6.784 17.034667-12.384 27.221334-14.026667a10.666667 10.666667 0 0 1 12.224 8.842667zM434.133333 407.722667c-14.794667 9.290667-26.986667 20.469333-33.493333 27.690666a10.666667 10.666667 0 1 1-15.850667-14.282666c7.712-8.554667 21.397333-21.045333 37.984-31.466667 16.448-10.346667 36.928-19.392 57.941334-19.392a10.666667 10.666667 0 1 1 0 21.333333c-15.253333 0-31.658667 6.730667-46.592 16.106667zM462.101333 484.8c-17.173333 1.141333-34.037333 5.066667-44.138666 8.298667a10.666667 10.666667 0 1 1-6.496-20.32 219.573333 219.573333 0 0 1 49.226666-9.269334c18.688-1.237333 40.32 0.245333 55.893334 10.528a10.666667 10.666667 0 1 1-11.733334 17.813334c-9.493333-6.261333-25.088-8.224-42.752-7.050667zM487.776 578.474667a269.44 269.44 0 0 0-46.08-0.245334 10.666667 10.666667 0 1 1-1.952-21.248c11.477333-1.056 30.272-1.557333 49.984 0.256 19.466667 1.792 41.141333 5.952 57.493333 15.04a10.666667 10.666667 0 1 1-10.346666 18.656c-12.437333-6.912-30.549333-10.752-49.098667-12.458666zM518.816 676.928c-19.626667-2.197333-38.773333-1.418667-50.165333-0.064a10.666667 10.666667 0 1 1-2.528-21.184c12.821333-1.525333 33.621333-2.346667 55.061333 0.042667 21.130667 2.357333 44.586667 8.021333 61.312 20.725333A10.666667 10.666667 0 1 1 569.6 693.44c-12.074667-9.173333-30.837333-14.293333-50.784-16.512zM556.192 781.248c-19.872-6.336-42.4-7.722667-56.938667-6.986667a10.666667 10.666667 0 0 1-1.066666-21.312c16.341333-0.821333 41.546667 0.661333 64.490666 7.978667 22.581333 7.2 45.973333 21.12 53.013334 47.242667a10.666667 10.666667 0 0 1-20.608 5.546666c-4.16-15.488-18.666667-26.016-38.890667-32.469333z" fill="#FCE04E" /></svg>